%FSLAX23Y23*%
%MOIN*%
%SFA1B1*%

%IPPOS*%
%ADD10R,0.074800X0.354330*%
%ADD11R,0.236220X0.354330*%
%ADD12C,0.015750*%
%ADD13R,0.059060X0.059060*%
%ADD14C,0.059060*%
%LNfluke_8505a_board-1*%
%LPD*%
G54D10*
X226Y0D03*
X76D03*
X-474D03*
X-624D03*
X-1031Y0D03*
X-1181D03*
X-1331D03*
X-1481D03*
X-1631D03*
X-1781D03*
X-1931D03*
X-2081D03*
X-2231D03*
X-2381D03*
X-2531D03*
X-2681D03*
X-2831D03*
X-2981D03*
X-3131D03*
X-3281D03*
X-3431D03*
X-3581D03*
X-3881D03*
X-3731D03*
G54D11*
X-244Y0D03*
G54D12*
X-1371Y565D02*
X-1183Y377D01*
Y167D02*
Y377D01*
Y167D02*
X-1176Y160D01*
X-1564Y583D02*
X-1328Y347D01*
Y176D02*
Y347D01*
X-1335Y169D02*
X-1328Y176D01*
X-1864Y557D02*
X-1778Y471D01*
Y152D02*
Y471D01*
X-1764Y588D02*
X-1627Y451D01*
Y165D02*
Y451D01*
Y165D02*
X-1620Y157D01*
X-1664Y605D02*
X-1481Y422D01*
Y167D02*
Y422D01*
Y167D02*
X-1469Y155D01*
X-1302Y565D02*
X-1032Y296D01*
Y174D02*
Y296D01*
X-1045Y161D02*
X-1032Y174D01*
X-2064Y572D02*
Y651D01*
X-2077Y559D02*
X-2064Y572D01*
X-2077Y146D02*
Y559D01*
X-2164Y408D02*
Y651D01*
X-2237Y335D02*
X-2164Y408D01*
X-2237Y167D02*
Y335D01*
X-1964Y535D02*
Y651D01*
Y535D02*
X-1931Y501D01*
Y156D02*
Y501D01*
X-2264Y507D02*
Y651D01*
X-2383Y388D02*
X-2264Y507D01*
X-2383Y160D02*
Y388D01*
X-1864Y557D02*
Y651D01*
X-2364Y567D02*
Y651D01*
X-2533Y398D02*
X-2364Y567D01*
X-2533Y153D02*
Y398D01*
X-2464Y584D02*
Y651D01*
X-2679Y370D02*
X-2464Y584D01*
X-2679Y155D02*
Y370D01*
X-2564Y594D02*
Y651D01*
X-2836Y322D02*
X-2564Y594D01*
X-2836Y171D02*
Y322D01*
X-1764Y588D02*
Y651D01*
X-1664Y605D02*
Y651D01*
X-1564Y583D02*
Y651D01*
X-1464Y597D02*
Y651D01*
Y597D02*
X-1433Y565D01*
X-1371*
X-1364Y603D02*
Y651D01*
Y603D02*
X-1326Y565D01*
X-1302*
X-2664Y578D02*
Y651D01*
X-2811Y432D02*
X-2664Y578D01*
X-2921Y432D02*
X-2811D01*
X-2980Y373D02*
X-2921Y432D01*
X-2980Y162D02*
Y373D01*
X-2764Y569D02*
Y651D01*
X-2876Y457D02*
X-2764Y569D01*
X-3083Y457D02*
X-2876D01*
X-3132Y408D02*
X-3083Y457D01*
X-3132Y171D02*
Y408D01*
X-1264Y570D02*
Y651D01*
Y570D02*
X-1237Y543D01*
X-1188*
X-1077Y432*
X-797*
X-697Y332*
X-1164Y583D02*
Y651D01*
Y583D02*
X-1041Y459D01*
X-638*
X-546Y367*
X-2864Y565D02*
Y651D01*
X-2943Y486D02*
X-2864Y565D01*
X-3208Y486D02*
X-2943D01*
X-3281Y413D02*
X-3208Y486D01*
X-3281Y163D02*
Y413D01*
X-2964Y588D02*
Y651D01*
X-3040Y512D02*
X-2964Y588D01*
X-3345Y512D02*
X-3040D01*
X-3431Y427D02*
X-3345Y512D01*
X-3431Y169D02*
Y427D01*
X-1064Y553D02*
Y651D01*
Y553D02*
X-1000Y489D01*
X-408*
X-320Y401*
X-964Y601D02*
Y651D01*
Y601D02*
X-884Y521D01*
X-207*
X-1Y315*
X-864Y651D02*
X-773D01*
X-673Y551*
X-184*
X18Y348*
X-3064Y599D02*
Y651D01*
X-3125Y538D02*
X-3064Y599D01*
X-3367Y538D02*
X-3125D01*
X-3577Y327D02*
X-3367Y538D01*
X-3577Y163D02*
Y327D01*
X-3164Y615D02*
Y651D01*
X-3216Y563D02*
X-3164Y615D01*
X-3389Y563D02*
X-3216D01*
X-3734Y219D02*
X-3389Y563D01*
X-3734Y155D02*
Y219D01*
X-3343Y651D02*
X-3264D01*
X-3708Y286D02*
X-3343Y651D01*
X-3800Y286D02*
X-3708D01*
X-3881Y204D02*
X-3800Y286D01*
X-3881Y163D02*
Y204D01*
X-697Y332D02*
X-624Y258D01*
Y157D02*
Y258D01*
X-546Y367D02*
D01*
X-473Y294*
Y150D02*
Y294D01*
X-320Y401D02*
X-242Y322D01*
Y138D02*
Y322D01*
X-1Y282D02*
Y315D01*
Y282D02*
X73Y206D01*
Y134D02*
Y206D01*
X18Y348D02*
X116D01*
X228Y237*
Y135D02*
Y237D01*
G54D13*
X-3264Y651D03*
G54D14*
X-3264Y751D03*
X-3164Y651D03*
Y751D03*
X-3064Y651D03*
Y751D03*
X-2964Y651D03*
Y751D03*
X-2864Y651D03*
Y751D03*
X-2764Y651D03*
Y751D03*
X-2664Y651D03*
Y751D03*
X-2564Y651D03*
Y751D03*
X-2464Y651D03*
Y751D03*
X-2364Y651D03*
Y751D03*
X-2264Y651D03*
Y751D03*
X-2164Y651D03*
Y751D03*
X-2064Y651D03*
Y751D03*
X-1964Y651D03*
Y751D03*
X-1864Y651D03*
Y751D03*
X-1764Y651D03*
Y751D03*
X-1664Y651D03*
Y751D03*
X-1564Y651D03*
Y751D03*
X-1464Y651D03*
Y751D03*
X-1364Y651D03*
Y751D03*
X-1264Y651D03*
Y751D03*
X-1164Y651D03*
Y751D03*
X-1064Y651D03*
Y751D03*
X-964Y651D03*
Y751D03*
X-864Y651D03*
Y751D03*
M02*