%FSLAX23Y23*%
%MOIN*%
%SFA1B1*%

%IPPOS*%
%ADD16C,0.007870*%
%ADD17C,0.010000*%
%LNfluke_8505a_board-1*%
%LPD*%
G36*
X-3679Y850D02*
X-3706D01*
X-3708Y837*
X-3708*
X-3708Y837*
X-3708Y838*
X-3707Y838*
X-3705Y838*
X-3704Y839*
X-3702Y839*
X-3700Y839*
X-3698Y840*
X-3698*
X-3697Y839*
X-3696Y839*
X-3695Y839*
X-3694Y839*
X-3693Y839*
X-3690Y838*
X-3689Y837*
X-3688Y837*
X-3686Y836*
X-3685Y835*
X-3683Y834*
X-3682Y832*
X-3682Y832*
X-3682Y832*
X-3681Y832*
X-3681Y831*
X-3681Y831*
X-3680Y830*
X-3679Y829*
X-3679Y828*
X-3678Y826*
X-3678Y825*
X-3677Y823*
X-3676Y822*
X-3676Y820*
X-3676Y818*
X-3675Y816*
X-3675Y814*
Y814*
Y814*
Y813*
X-3675Y813*
Y812*
X-3676Y811*
X-3676Y810*
X-3676Y809*
X-3677Y806*
X-3678Y803*
X-3678Y802*
X-3679Y800*
X-3680Y799*
X-3681Y797*
X-3681Y797*
X-3681Y797*
X-3682Y797*
X-3682Y796*
X-3683Y795*
X-3684Y794*
X-3685Y793*
X-3686Y792*
X-3688Y791*
X-3689Y791*
X-3691Y790*
X-3693Y789*
X-3695Y788*
X-3697Y788*
X-3699Y788*
X-3701Y787*
X-3702*
X-3703Y788*
X-3704Y788*
X-3705Y788*
X-3706Y788*
X-3707Y788*
X-3710Y789*
X-3713Y790*
X-3714Y790*
X-3716Y791*
X-3717Y792*
X-3719Y793*
X-3719Y793*
X-3719Y793*
X-3719Y794*
X-3720Y794*
X-3720Y795*
X-3721Y795*
X-3721Y796*
X-3722Y797*
X-3723Y798*
X-3723Y799*
X-3725Y802*
X-3726Y805*
X-3726Y806*
X-3726Y808*
X-3712Y810*
Y809*
X-3712Y809*
X-3712Y808*
X-3711Y807*
X-3711Y806*
X-3710Y804*
X-3709Y803*
X-3708Y802*
X-3708Y802*
X-3708Y801*
X-3707Y801*
X-3706Y800*
X-3705Y800*
X-3704Y799*
X-3703Y799*
X-3701Y799*
X-3701*
X-3700Y799*
X-3699Y799*
X-3698Y799*
X-3697Y800*
X-3696Y801*
X-3695Y802*
X-3693Y803*
X-3693Y803*
X-3693Y803*
X-3692Y804*
X-3692Y806*
X-3691Y807*
X-3691Y809*
X-3690Y811*
X-3690Y814*
Y814*
Y814*
Y815*
Y815*
X-3690Y816*
X-3691Y818*
X-3691Y820*
X-3692Y821*
X-3692Y823*
X-3693Y824*
X-3693Y825*
X-3694Y825*
X-3695Y825*
X-3696Y826*
X-3697Y827*
X-3698Y827*
X-3700Y828*
X-3702Y828*
X-3702*
X-3703Y828*
X-3704Y828*
X-3705Y827*
X-3707Y827*
X-3709Y826*
X-3710Y825*
X-3711Y824*
X-3712Y823*
X-3713Y822*
X-3725Y824*
X-3717Y864*
X-3679*
Y850*
G37*
G36*
X-3796D02*
X-3824D01*
X-3826Y837*
X-3826*
X-3826Y837*
X-3825Y838*
X-3824Y838*
X-3823Y838*
X-3821Y839*
X-3820Y839*
X-3818Y839*
X-3816Y840*
X-3815*
X-3814Y839*
X-3814Y839*
X-3813Y839*
X-3812Y839*
X-3810Y839*
X-3808Y838*
X-3806Y837*
X-3805Y837*
X-3804Y836*
X-3802Y835*
X-3801Y834*
X-3800Y832*
X-3800Y832*
X-3799Y832*
X-3799Y832*
X-3799Y831*
X-3798Y831*
X-3798Y830*
X-3797Y829*
X-3796Y828*
X-3796Y826*
X-3795Y825*
X-3794Y823*
X-3794Y822*
X-3794Y820*
X-3793Y818*
X-3793Y816*
X-3793Y814*
Y814*
Y814*
Y813*
X-3793Y813*
Y812*
X-3793Y811*
X-3793Y810*
X-3794Y809*
X-3794Y806*
X-3795Y803*
X-3796Y802*
X-3797Y800*
X-3797Y799*
X-3798Y797*
X-3799Y797*
X-3799Y797*
X-3799Y797*
X-3800Y796*
X-3800Y795*
X-3801Y794*
X-3803Y793*
X-3804Y792*
X-3805Y791*
X-3807Y791*
X-3808Y790*
X-3810Y789*
X-3812Y788*
X-3814Y788*
X-3817Y788*
X-3819Y787*
X-3820*
X-3821Y788*
X-3822Y788*
X-3823Y788*
X-3824Y788*
X-3825Y788*
X-3828Y789*
X-3831Y790*
X-3832Y790*
X-3833Y791*
X-3835Y792*
X-3836Y793*
X-3836Y793*
X-3836Y793*
X-3837Y794*
X-3837Y794*
X-3838Y795*
X-3838Y795*
X-3839Y796*
X-3839Y797*
X-3840Y798*
X-3841Y799*
X-3842Y802*
X-3843Y805*
X-3844Y806*
X-3844Y808*
X-3829Y810*
Y809*
X-3829Y809*
X-3829Y808*
X-3829Y807*
X-3828Y806*
X-3828Y804*
X-3827Y803*
X-3826Y802*
X-3826Y802*
X-3825Y801*
X-3825Y801*
X-3824Y800*
X-3823Y800*
X-3822Y799*
X-3820Y799*
X-3819Y799*
X-3819*
X-3818Y799*
X-3817Y799*
X-3816Y799*
X-3815Y800*
X-3813Y801*
X-3812Y802*
X-3811Y803*
X-3811Y803*
X-3810Y803*
X-3810Y804*
X-3809Y806*
X-3809Y807*
X-3808Y809*
X-3808Y811*
X-3808Y814*
Y814*
Y814*
Y815*
Y815*
X-3808Y816*
X-3808Y818*
X-3809Y820*
X-3809Y821*
X-3810Y823*
X-3811Y824*
X-3811Y825*
X-3812Y825*
X-3812Y825*
X-3813Y826*
X-3814Y827*
X-3816Y827*
X-3817Y828*
X-3819Y828*
X-3820*
X-3820Y828*
X-3821Y828*
X-3823Y827*
X-3825Y827*
X-3826Y826*
X-3827Y825*
X-3828Y824*
X-3829Y823*
X-3830Y822*
X-3842Y824*
X-3835Y864*
X-3796*
Y850*
G37*
G36*
X621Y226D02*
X624Y224D01*
X628Y221*
X632Y217*
X635Y212*
Y206*
Y205*
X634Y204*
X631Y201*
X629Y199*
X625Y196*
X611*
X610Y197*
X605Y201*
X601Y206*
X596Y214*
Y215*
X597Y215*
X600Y221*
X605Y226*
X610Y226*
X614Y227*
X616*
X621Y226*
G37*
G36*
X599Y260D02*
X602Y259D01*
X606Y257*
X610Y254*
X613Y249*
X617Y243*
Y242*
X616Y241*
X613Y236*
X610Y232*
X608Y230*
X606Y229*
X595*
X592Y230*
X588Y232*
X584Y235*
X581Y238*
X579Y243*
X578Y250*
Y251*
X579Y252*
X581Y256*
X587Y259*
X590Y261*
X596*
X599Y260*
G37*
G36*
X680Y276D02*
X685Y273D01*
X691Y268*
X693Y266*
X694Y263*
Y258*
X679Y225*
Y206*
Y205*
X678Y204*
X674Y201*
X673Y199*
X669Y196*
X662*
X660Y197*
X656Y199*
X651Y203*
X645Y209*
X642Y214*
X639Y218*
X635Y225*
X632Y231*
X629Y239*
X625Y248*
Y253*
X626Y255*
X628Y257*
X632Y259*
X638Y263*
X642Y265*
X647Y267*
X653Y269*
X660Y271*
X668Y274*
X677Y277*
X678*
X680Y276*
G37*
G36*
X-4126Y789D02*
X-4141D01*
Y865*
X-4126*
Y789*
G37*
G36*
X-4153Y852D02*
X-4190D01*
Y834*
X-4158*
Y821*
X-4190*
Y789*
X-4205*
Y865*
X-4153*
Y852*
G37*
G36*
X-4033Y824D02*
X-4016Y844D01*
X-3998*
X-4017Y824*
X-3997Y789*
X-4012*
X-4026Y813*
X-4033Y806*
Y789*
X-4047*
Y865*
X-4033*
Y824*
G37*
G36*
X-4062Y789D02*
X-4075D01*
Y797*
X-4075Y797*
X-4076Y796*
X-4076Y796*
X-4077Y795*
X-4078Y793*
X-4080Y792*
X-4081Y791*
X-4083Y790*
X-4083Y790*
X-4084Y790*
X-4085Y789*
X-4086Y789*
X-4088Y788*
X-4090Y788*
X-4091Y788*
X-4093Y788*
X-4094*
X-4095Y788*
X-4097Y788*
X-4098Y788*
X-4100Y789*
X-4102Y789*
X-4103Y790*
X-4104Y790*
X-4104Y791*
X-4105Y791*
X-4106Y792*
X-4107Y793*
X-4108Y794*
X-4109Y795*
X-4110Y797*
X-4110Y797*
X-4110Y798*
X-4110Y799*
X-4111Y800*
X-4111Y802*
X-4111Y804*
X-4112Y806*
X-4112Y809*
Y844*
X-4097*
Y818*
Y818*
Y818*
Y817*
Y817*
Y816*
Y815*
X-4097Y812*
X-4097Y810*
X-4097Y808*
X-4097Y807*
X-4097Y806*
X-4096Y805*
X-4096Y804*
Y804*
X-4096Y804*
X-4096Y804*
X-4096Y803*
X-4095Y802*
X-4095Y802*
X-4094Y801*
X-4094Y800*
X-4093Y800*
X-4093Y800*
X-4093Y800*
X-4092Y800*
X-4091Y799*
X-4090Y799*
X-4089Y799*
X-4088Y799*
X-4087*
X-4087Y799*
X-4086Y799*
X-4085Y799*
X-4084Y800*
X-4082Y800*
X-4081Y801*
X-4081Y801*
X-4081Y801*
X-4080Y802*
X-4080Y802*
X-4079Y803*
X-4078Y804*
X-4078Y805*
X-4077Y806*
Y806*
X-4077Y806*
Y807*
X-4077Y807*
X-4077Y808*
X-4077Y809*
X-4077Y810*
X-4077Y811*
X-4076Y812*
Y813*
X-4076Y815*
X-4076Y817*
Y818*
Y821*
Y844*
X-4062*
Y789*
G37*
G36*
X-3596D02*
X-3613D01*
X-3619Y806*
X-3650*
X-3656Y789*
X-3672*
X-3643Y865*
X-3627*
X-3596Y789*
G37*
G36*
X390Y403D02*
X395Y399D01*
X399Y392*
X400Y388*
X401Y383*
Y382*
X400Y380*
X398Y379*
X394Y375*
X385*
X384Y376*
X378Y380*
X373Y386*
X371Y390*
X370Y393*
Y394*
X371Y395*
X373Y399*
X375Y402*
X376Y404*
X389*
X390Y403*
G37*
G36*
X549Y384D02*
X552Y382D01*
X555Y380*
X559Y377*
X560Y371*
X562Y365*
Y364*
X561Y362*
X560Y360*
X555Y357*
X549*
X546Y358*
X541Y359*
X538Y362*
X535Y366*
X532Y370*
X531Y378*
X544Y385*
X547*
X549Y384*
G37*
G36*
X544Y413D02*
X547Y411D01*
X551Y406*
X555Y399*
X554Y397*
X552Y393*
X549Y390*
X549Y389*
X547Y388*
X539*
X532Y390*
X529Y392*
X526Y395*
X524Y400*
X523Y406*
Y409*
Y410*
X524Y411*
X526Y413*
X529Y414*
X542*
X544Y413*
G37*
G36*
X442Y426D02*
X447Y422D01*
X451Y415*
X452Y411*
X453Y406*
X451Y405*
X448Y402*
X444Y400*
X440Y399*
X439*
X437Y400*
X431Y404*
X425Y411*
X423Y416*
X422Y421*
X430Y427*
X441*
X442Y426*
G37*
G36*
X410Y422D02*
X414Y420D01*
X416Y417*
X418Y412*
X419Y406*
Y404*
Y403*
X418Y401*
X415Y399*
X413Y398*
X409Y396*
X406*
X404Y397*
X401Y399*
X398Y401*
X395Y405*
X393Y410*
X391Y417*
Y419*
Y420*
X392Y421*
X394Y423*
X396Y424*
X404*
X410Y422*
G37*
G36*
X651Y306D02*
X657Y302D01*
X661Y299*
X663Y295*
Y285*
Y284*
X662Y282*
X660Y279*
X655Y277*
X650*
X647Y277*
X643Y278*
X639Y280*
X635Y282*
X632Y284*
X629Y287*
X628Y289*
Y298*
Y298*
X629Y300*
X632Y303*
X634Y306*
X638Y308*
X645*
X651Y306*
G37*
G36*
X610Y291D02*
X613Y290D01*
X618Y288*
X622Y286*
X626Y283*
X629Y278*
X630Y274*
Y273*
X629Y272*
X626Y267*
X621Y263*
X616Y262*
X611Y261*
X611*
X609Y262*
X605Y263*
X601Y265*
X598Y267*
X594Y271*
X592Y276*
X591Y282*
Y283*
X592Y284*
X595Y287*
X600Y290*
X602Y292*
X607*
X610Y291*
G37*
G36*
X453Y395D02*
X459Y391D01*
X467Y385*
X468Y380*
X469Y375*
X446Y349*
Y347*
X444Y343*
X440Y337*
X437Y334*
X433Y331*
X432*
X429Y332*
X426Y334*
X421Y337*
X416Y342*
X413Y349*
X409Y360*
X407Y368*
X406Y375*
Y380*
Y381*
X407Y382*
X410Y387*
X413Y390*
X415Y392*
X416Y393*
X436*
X450Y396*
X451*
X453Y395*
G37*
G36*
X609Y413D02*
X614Y410D01*
X620Y403*
X621Y399*
X622Y393*
X621Y392*
X620Y390*
X616Y387*
X611Y382*
X608Y377*
X603Y370*
X600Y361*
X596Y351*
X591Y349*
X588*
X585Y349*
X581Y351*
X577Y355*
X571Y361*
X569Y366*
X567Y371*
X565Y377*
X562Y384*
X560Y392*
X560Y401*
X561Y403*
X563Y404*
X568Y406*
X573Y408*
X581Y411*
X592Y412*
X606Y414*
X607*
X609Y413*
G37*
G36*
X393Y371D02*
X396Y370D01*
X400Y367*
X404Y363*
X406Y359*
X406Y351*
Y350*
X406Y349*
X404Y347*
X399Y344*
X394*
X387Y347*
X384Y349*
X381Y351*
X379Y356*
X378Y362*
Y365*
Y366*
X379Y368*
X382Y370*
X386Y372*
X389*
X393Y371*
G37*
G36*
X-4302Y744D02*
X-4342D01*
Y728*
X-4305*
Y715*
X-4342*
Y694*
X-4300*
Y682*
X-4358*
Y757*
X-4302*
Y744*
G37*
G36*
X-3720Y738D02*
X-3719Y737D01*
X-3718Y737*
X-3716Y737*
X-3715Y737*
X-3713Y736*
X-3712Y736*
X-3710Y735*
X-3708Y734*
X-3706Y733*
X-3705Y732*
X-3703Y731*
X-3702Y730*
X-3702Y729*
X-3701Y729*
X-3701Y729*
X-3700Y728*
X-3700Y727*
X-3699Y726*
X-3698Y725*
X-3698Y724*
X-3697Y723*
X-3696Y721*
X-3696Y719*
X-3695Y718*
X-3694Y716*
X-3694Y714*
X-3694Y711*
X-3694Y709*
Y709*
Y709*
Y708*
X-3694Y707*
X-3694Y706*
X-3694Y705*
X-3694Y703*
X-3695Y702*
X-3695Y700*
X-3696Y699*
X-3696Y697*
X-3697Y695*
X-3698Y693*
X-3699Y692*
X-3700Y690*
X-3702Y688*
X-3702Y688*
X-3702Y688*
X-3703Y688*
X-3703Y687*
X-3704Y687*
X-3705Y686*
X-3706Y685*
X-3707Y684*
X-3709Y684*
X-3710Y683*
X-3712Y682*
X-3714Y682*
X-3716Y681*
X-3718Y681*
X-3720Y680*
X-3722Y680*
X-3723*
X-3723Y680*
X-3724*
X-3725Y681*
X-3727Y681*
X-3729Y681*
X-3731Y682*
X-3734Y683*
X-3736Y684*
X-3737*
X-3737Y684*
X-3737Y684*
X-3737Y684*
X-3739Y685*
X-3740Y686*
X-3742Y688*
X-3744Y689*
X-3745Y691*
X-3747Y694*
Y694*
X-3747Y694*
X-3747Y694*
X-3747Y695*
X-3748Y696*
X-3748Y696*
X-3748Y697*
X-3749Y698*
X-3749Y699*
X-3749Y701*
X-3750Y703*
X-3750Y706*
X-3750Y710*
Y710*
Y710*
Y711*
X-3750Y711*
Y712*
X-3750Y712*
X-3750Y714*
X-3749Y716*
X-3749Y719*
X-3748Y721*
X-3747Y724*
Y724*
X-3747Y724*
X-3746Y724*
X-3746Y725*
X-3745Y726*
X-3744Y727*
X-3743Y729*
X-3741Y731*
X-3739Y733*
X-3737Y734*
X-3737*
X-3736Y734*
X-3736Y734*
X-3736Y735*
X-3735Y735*
X-3734Y735*
X-3733Y735*
X-3732Y736*
X-3730Y737*
X-3728Y737*
X-3725Y738*
X-3722Y738*
X-3721*
X-3720Y738*
G37*
G36*
X-3997Y682D02*
X-4011D01*
Y736*
X-3997*
Y682*
G37*
G36*
X-3659Y738D02*
X-3658D01*
X-3656Y737*
X-3653Y737*
X-3651Y737*
X-3649Y736*
X-3648Y736*
X-3647Y735*
X-3646*
X-3646Y735*
X-3646Y735*
X-3645Y734*
X-3644Y734*
X-3643Y733*
X-3642Y732*
X-3641Y731*
X-3640Y729*
X-3640Y729*
X-3639Y729*
X-3639Y728*
X-3639Y727*
X-3639Y727*
X-3639Y726*
X-3638Y725*
X-3638Y724*
X-3638Y722*
X-3638Y721*
X-3638Y720*
X-3638Y718*
Y716*
X-3638Y700*
Y699*
Y699*
Y699*
Y698*
Y697*
X-3638Y695*
Y694*
X-3638Y692*
X-3638Y690*
X-3637Y689*
Y689*
X-3637Y688*
X-3637Y687*
X-3637Y687*
X-3636Y686*
X-3636Y684*
X-3635Y683*
X-3635Y682*
X-3649*
Y682*
X-3649Y682*
X-3649Y682*
X-3650Y683*
X-3650Y683*
X-3650Y684*
X-3650Y685*
X-3650Y686*
Y686*
X-3651Y686*
X-3651Y687*
X-3651Y687*
X-3651Y687*
X-3651Y687*
X-3652Y687*
X-3652Y686*
X-3653Y686*
X-3655Y685*
X-3656Y684*
X-3657Y683*
X-3659Y682*
X-3659Y682*
X-3660Y682*
X-3661Y682*
X-3662Y681*
X-3663Y681*
X-3665Y681*
X-3666Y680*
X-3668Y680*
X-3669*
X-3670Y680*
X-3670*
X-3671Y681*
X-3673Y681*
X-3675Y681*
X-3677Y682*
X-3679Y683*
X-3681Y685*
Y685*
X-3682Y685*
X-3682Y686*
X-3683Y687*
X-3684Y688*
X-3685Y690*
X-3685Y692*
X-3686Y694*
X-3686Y695*
X-3686Y696*
Y697*
Y697*
X-3686Y698*
X-3686Y699*
X-3686Y701*
X-3685Y702*
X-3685Y703*
X-3684Y705*
X-3684Y705*
X-3684Y705*
X-3683Y706*
X-3682Y707*
X-3682Y708*
X-3681Y709*
X-3679Y709*
X-3678Y710*
X-3678Y710*
X-3677Y711*
X-3676Y711*
X-3675Y711*
X-3673Y712*
X-3671Y713*
X-3669Y713*
X-3666Y714*
X-3666*
X-3666Y714*
X-3665Y714*
X-3665Y714*
X-3664Y714*
X-3663Y714*
X-3661Y715*
X-3658Y715*
X-3656Y716*
X-3654Y717*
X-3653Y717*
X-3652Y717*
Y719*
Y719*
Y719*
X-3652Y720*
X-3652Y721*
X-3653Y722*
X-3653Y723*
X-3654Y724*
X-3654Y725*
X-3654Y725*
X-3655Y725*
X-3655Y725*
X-3656Y726*
X-3657Y726*
X-3658Y726*
X-3660Y726*
X-3662Y727*
X-3663*
X-3663Y726*
X-3664Y726*
X-3665Y726*
X-3666Y726*
X-3667Y725*
X-3668Y725*
X-3668Y725*
X-3669Y725*
X-3669Y724*
X-3669Y724*
X-3670Y723*
X-3671Y722*
X-3671Y721*
X-3672Y720*
X-3685Y722*
Y722*
X-3685Y722*
X-3684Y723*
X-3684Y723*
X-3684Y724*
X-3684Y725*
X-3683Y726*
X-3682Y728*
X-3681Y730*
X-3679Y732*
X-3677Y734*
X-3677*
X-3677Y734*
X-3677Y734*
X-3676Y734*
X-3676Y735*
X-3675Y735*
X-3674Y735*
X-3673Y736*
X-3672Y736*
X-3671Y736*
X-3670Y737*
X-3668Y737*
X-3666Y737*
X-3665Y737*
X-3663Y738*
X-3659*
X-3659Y738*
G37*
G36*
X-3788Y757D02*
X-3786Y757D01*
X-3784Y757*
X-3781Y757*
X-3780Y756*
X-3779*
X-3779Y756*
X-3778Y756*
X-3777Y756*
X-3776Y755*
X-3774Y755*
X-3773Y754*
X-3772Y753*
X-3772Y753*
X-3771Y753*
X-3771Y752*
X-3770Y752*
X-3769Y751*
X-3768Y750*
X-3767Y748*
X-3766Y747*
X-3766Y747*
X-3766Y746*
X-3765Y745*
X-3765Y744*
X-3764Y743*
X-3764Y742*
X-3764Y740*
X-3764Y738*
Y738*
Y738*
Y737*
X-3764Y736*
X-3764Y735*
X-3764Y733*
X-3765Y732*
X-3765Y730*
X-3766Y728*
X-3767Y728*
X-3767Y728*
X-3768Y727*
X-3768Y726*
X-3770Y725*
X-3771Y724*
X-3772Y723*
X-3774Y722*
X-3774*
X-3774Y722*
X-3773Y721*
X-3773Y721*
X-3772Y721*
X-3770Y720*
X-3769Y719*
X-3767Y718*
X-3765Y717*
X-3764Y715*
X-3763Y715*
X-3763Y714*
X-3762Y713*
X-3762Y712*
X-3761Y710*
X-3760Y708*
X-3760Y706*
X-3760Y703*
Y703*
Y703*
Y703*
X-3760Y702*
X-3760Y700*
X-3760Y699*
X-3761Y697*
X-3761Y695*
X-3762Y693*
X-3762Y693*
X-3763Y693*
X-3763Y692*
X-3764Y691*
X-3765Y689*
X-3766Y688*
X-3767Y687*
X-3769Y686*
X-3769Y686*
X-3770Y685*
X-3770Y685*
X-3772Y684*
X-3773Y683*
X-3775Y683*
X-3777Y682*
X-3779Y682*
X-3779*
X-3780Y682*
X-3781*
X-3782Y682*
X-3784*
X-3785Y682*
X-3788*
X-3790Y682*
X-3823*
Y757*
X-3790*
X-3788Y757*
G37*
G36*
X-3600Y589D02*
X-3610D01*
X-3626Y634*
X-3617*
X-3605Y601*
X-3594Y634*
X-3584*
X-3600Y589*
G37*
G36*
X-3548Y635D02*
X-3547Y635D01*
X-3547Y635*
X-3546Y634*
X-3545Y634*
X-3543Y634*
X-3542Y633*
X-3541Y633*
X-3540Y632*
X-3539Y632*
X-3538Y631*
X-3538Y631*
X-3538Y631*
X-3538Y631*
X-3538Y630*
X-3537Y630*
X-3537Y630*
X-3537Y629*
X-3536Y629*
X-3536Y627*
X-3535Y626*
X-3535Y625*
X-3535Y624*
X-3535Y623*
X-3534Y622*
Y622*
Y621*
X-3535Y621*
X-3535Y620*
X-3535Y619*
X-3535Y618*
X-3535Y617*
X-3536Y616*
X-3536Y616*
X-3536Y616*
X-3536Y615*
X-3536Y614*
X-3537Y614*
X-3537Y613*
X-3538Y612*
X-3539Y610*
X-3539Y610*
X-3539Y610*
X-3540Y610*
X-3540Y609*
X-3541Y608*
X-3542Y607*
X-3543Y606*
X-3545Y605*
X-3545Y604*
X-3545Y604*
X-3545Y604*
X-3545Y604*
X-3546Y603*
X-3547Y603*
X-3548Y602*
X-3549Y601*
X-3549Y600*
X-3550Y600*
X-3550Y600*
X-3550Y599*
X-3550Y599*
X-3550Y599*
X-3551Y599*
X-3551Y598*
X-3552Y597*
X-3534*
Y589*
X-3565*
Y589*
Y589*
X-3565Y590*
X-3565Y590*
X-3565Y590*
X-3565Y591*
X-3564Y592*
X-3564Y593*
X-3563Y595*
X-3563Y596*
X-3562Y598*
Y598*
X-3562Y598*
X-3562Y598*
X-3561Y598*
X-3561Y599*
X-3561Y599*
X-3560Y600*
X-3560Y601*
X-3559Y601*
X-3559Y602*
X-3558Y603*
X-3557Y604*
X-3556Y605*
X-3555Y606*
X-3554Y607*
X-3552Y609*
X-3552Y609*
X-3552Y609*
X-3552Y609*
X-3551Y610*
X-3551Y610*
X-3550Y610*
X-3549Y612*
X-3548Y613*
X-3547Y614*
X-3546Y615*
X-3546Y615*
X-3545Y616*
X-3545Y616*
X-3545Y616*
X-3545Y617*
X-3544Y617*
X-3544Y618*
X-3544Y619*
X-3543Y620*
X-3543Y620*
X-3543Y621*
Y621*
Y622*
Y622*
X-3543Y622*
X-3543Y623*
X-3544Y624*
X-3544Y625*
X-3544Y625*
X-3545Y626*
X-3545Y626*
X-3545Y626*
X-3545Y626*
X-3546Y627*
X-3547Y627*
X-3547Y627*
X-3548Y627*
X-3549Y628*
X-3550*
X-3550Y627*
X-3551Y627*
X-3551Y627*
X-3552Y627*
X-3553Y626*
X-3553Y626*
X-3554Y626*
X-3554Y626*
X-3554Y625*
X-3554Y625*
X-3555Y624*
X-3555Y623*
X-3555Y622*
X-3555Y620*
X-3564Y621*
Y621*
X-3564Y622*
Y622*
X-3564Y622*
X-3564Y623*
X-3563Y624*
X-3563Y624*
X-3563Y625*
X-3562Y627*
X-3562Y629*
X-3561Y629*
X-3560Y630*
X-3560Y631*
X-3559Y632*
X-3559Y632*
X-3559Y632*
X-3559Y632*
X-3558Y632*
X-3558Y632*
X-3557Y633*
X-3557Y633*
X-3556Y633*
X-3556Y633*
X-3555Y634*
X-3553Y634*
X-3551Y635*
X-3550Y635*
X-3549Y635*
X-3548*
X-3548Y635*
G37*
G36*
X-4213Y736D02*
X-4203D01*
Y725*
X-4213*
Y703*
Y703*
Y702*
Y702*
Y702*
Y701*
Y699*
X-4213Y698*
Y697*
Y696*
X-4213Y695*
Y695*
X-4213Y695*
X-4213Y694*
X-4213Y694*
X-4212Y693*
X-4212Y693*
X-4211Y693*
X-4210Y693*
X-4209Y692*
X-4209*
X-4209Y693*
X-4208Y693*
X-4207Y693*
X-4206Y693*
X-4205Y693*
X-4204Y694*
X-4202Y682*
X-4202*
X-4202Y682*
X-4203Y682*
X-4204Y682*
X-4206Y681*
X-4207Y681*
X-4209Y681*
X-4211Y680*
X-4214Y680*
X-4214*
X-4215Y680*
X-4216Y681*
X-4217Y681*
X-4218Y681*
X-4220Y681*
X-4221Y682*
X-4221Y682*
X-4221Y682*
X-4222Y682*
X-4223Y683*
X-4224Y684*
X-4225Y684*
X-4226Y685*
X-4226Y685*
X-4226Y686*
X-4226Y686*
X-4226Y687*
X-4227Y687*
X-4227Y688*
X-4227Y689*
X-4227Y691*
Y691*
X-4228Y691*
Y692*
X-4228Y693*
X-4228Y694*
Y696*
X-4228Y697*
Y698*
Y700*
Y701*
Y725*
X-4235*
Y736*
X-4228*
Y747*
X-4213Y756*
Y736*
G37*
G36*
X-3955Y738D02*
X-3954Y737D01*
X-3953Y737*
X-3951Y737*
X-3950Y737*
X-3948Y736*
X-3946Y736*
X-3945Y735*
X-3943Y734*
X-3941Y733*
X-3940Y732*
X-3938Y731*
X-3937Y730*
X-3936Y729*
X-3936Y729*
X-3936Y729*
X-3935Y728*
X-3935Y727*
X-3934Y726*
X-3933Y725*
X-3932Y724*
X-3932Y723*
X-3931Y721*
X-3930Y719*
X-3930Y718*
X-3929Y716*
X-3929Y714*
X-3929Y711*
X-3929Y709*
Y709*
Y709*
Y708*
X-3929Y707*
X-3929Y706*
X-3929Y705*
X-3929Y703*
X-3930Y702*
X-3930Y700*
X-3931Y699*
X-3931Y697*
X-3932Y695*
X-3933Y693*
X-3934Y692*
X-3935Y690*
X-3937Y688*
X-3937Y688*
X-3937Y688*
X-3937Y688*
X-3938Y687*
X-3939Y687*
X-3940Y686*
X-3941Y685*
X-3942Y684*
X-3944Y684*
X-3945Y683*
X-3947Y682*
X-3949Y682*
X-3950Y681*
X-3952Y681*
X-3955Y680*
X-3957Y680*
X-3958*
X-3958Y680*
X-3959*
X-3960Y681*
X-3961Y681*
X-3964Y681*
X-3966Y682*
X-3969Y683*
X-3971Y684*
X-3971*
X-3972Y684*
X-3972Y684*
X-3972Y684*
X-3974Y685*
X-3975Y686*
X-3977Y688*
X-3979Y689*
X-3980Y691*
X-3982Y694*
Y694*
X-3982Y694*
X-3982Y694*
X-3982Y695*
X-3982Y696*
X-3983Y696*
X-3983Y697*
X-3983Y698*
X-3984Y699*
X-3984Y701*
X-3985Y703*
X-3985Y706*
X-3985Y710*
Y710*
Y710*
Y711*
X-3985Y711*
Y712*
X-3985Y712*
X-3985Y714*
X-3984Y716*
X-3984Y719*
X-3983Y721*
X-3982Y724*
Y724*
X-3981Y724*
X-3981Y724*
X-3981Y725*
X-3980Y726*
X-3979Y727*
X-3978Y729*
X-3976Y731*
X-3974Y733*
X-3972Y734*
X-3972*
X-3971Y734*
X-3971Y734*
X-3970Y735*
X-3970Y735*
X-3969Y735*
X-3968Y735*
X-3967Y736*
X-3965Y737*
X-3963Y737*
X-3960Y738*
X-3957Y738*
X-3956*
X-3955Y738*
G37*
G36*
X-4171D02*
X-4170Y737D01*
X-4168Y737*
X-4167Y737*
X-4166Y737*
X-4164Y736*
X-4163Y736*
X-4161Y735*
X-4159Y734*
X-4158Y733*
X-4156Y732*
X-4155Y731*
X-4153Y729*
X-4153Y729*
X-4153Y729*
X-4153Y729*
X-4152Y728*
X-4152Y727*
X-4151Y726*
X-4151Y725*
X-4150Y723*
X-4149Y722*
X-4149Y720*
X-4148Y718*
X-4147Y716*
X-4147Y713*
X-4147Y711*
X-4146Y708*
Y705*
X-4183*
Y705*
Y704*
Y704*
X-4183Y704*
X-4183Y703*
X-4182Y701*
X-4182Y700*
X-4181Y698*
X-4180Y696*
X-4179Y695*
X-4179Y695*
X-4179Y694*
X-4178Y694*
X-4177Y693*
X-4176Y692*
X-4174Y692*
X-4173Y691*
X-4171Y691*
X-4170*
X-4170Y691*
X-4169Y691*
X-4168Y692*
X-4167Y692*
X-4166Y692*
X-4165Y693*
X-4165Y693*
X-4165Y693*
X-4164Y694*
X-4164Y694*
X-4163Y695*
X-4163Y696*
X-4162Y698*
X-4162Y699*
X-4147Y697*
Y697*
X-4147Y696*
X-4148Y696*
X-4148Y695*
X-4148Y695*
X-4148Y694*
X-4149Y692*
X-4151Y690*
X-4152Y688*
X-4154Y686*
X-4156Y685*
X-4156*
X-4156Y684*
X-4157Y684*
X-4157Y684*
X-4158Y684*
X-4159Y683*
X-4159Y683*
X-4160Y682*
X-4162Y682*
X-4165Y681*
X-4168Y681*
X-4171Y680*
X-4172*
X-4172Y680*
X-4173*
X-4175Y681*
X-4176Y681*
X-4178Y681*
X-4179Y682*
X-4181Y682*
X-4183Y683*
X-4184Y683*
X-4186Y684*
X-4188Y685*
X-4189Y687*
X-4191Y688*
X-4192Y690*
X-4192Y690*
X-4193Y690*
X-4193Y690*
X-4193Y691*
X-4193Y692*
X-4194Y693*
X-4194Y694*
X-4195Y695*
X-4195Y696*
X-4196Y698*
X-4196Y699*
X-4197Y701*
X-4197Y703*
X-4197Y704*
X-4198Y707*
X-4198Y709*
Y709*
Y709*
Y710*
X-4198Y711*
X-4197Y712*
X-4197Y713*
X-4197Y715*
X-4197Y716*
X-4196Y720*
X-4195Y721*
X-4195Y723*
X-4194Y725*
X-4193Y727*
X-4192Y728*
X-4191Y730*
X-4190Y730*
X-4190Y730*
X-4190Y731*
X-4189Y731*
X-4189Y732*
X-4188Y732*
X-4187Y733*
X-4186Y734*
X-4184Y734*
X-4183Y735*
X-4182Y736*
X-4180Y736*
X-4178Y737*
X-4176Y737*
X-4175Y738*
X-4173Y738*
X-4171*
X-4171Y738*
G37*
G36*
X-3997Y744D02*
X-4011D01*
Y757*
X-3997*
Y744*
G37*
G36*
X-3532Y682D02*
X-3546D01*
Y690*
X-3546Y689*
X-3546Y689*
X-3547Y688*
X-3548Y687*
X-3549Y686*
X-3550Y685*
X-3552Y684*
X-3554Y683*
X-3554Y682*
X-3554Y682*
X-3555Y682*
X-3556Y681*
X-3558Y681*
X-3559Y681*
X-3561Y680*
X-3563Y680*
X-3564*
X-3564Y680*
X-3565Y681*
X-3566Y681*
X-3567Y681*
X-3568Y681*
X-3570Y682*
X-3571Y682*
X-3572Y683*
X-3574Y684*
X-3575Y684*
X-3576Y685*
X-3578Y687*
X-3579Y688*
X-3579Y688*
X-3579Y688*
X-3580Y689*
X-3580Y689*
X-3581Y690*
X-3581Y691*
X-3582Y692*
X-3582Y694*
X-3583Y695*
X-3584Y696*
X-3584Y698*
X-3585Y700*
X-3585Y702*
X-3585Y704*
X-3586Y707*
X-3586Y709*
Y709*
Y710*
Y710*
X-3586Y711*
X-3585Y713*
X-3585Y714*
X-3585Y715*
X-3585Y717*
X-3584Y721*
X-3584Y722*
X-3583Y724*
X-3582Y726*
X-3581Y727*
X-3580Y729*
X-3579Y730*
X-3579Y730*
X-3579Y731*
X-3579Y731*
X-3578Y732*
X-3577Y732*
X-3577Y733*
X-3576Y733*
X-3575Y734*
X-3574Y735*
X-3572Y735*
X-3570Y737*
X-3568Y737*
X-3566Y737*
X-3564Y738*
X-3563Y738*
X-3562*
X-3561Y738*
X-3560Y737*
X-3559Y737*
X-3558Y737*
X-3557Y737*
X-3556Y736*
X-3555Y736*
X-3553Y735*
X-3552Y734*
X-3551Y734*
X-3549Y733*
X-3548Y731*
X-3547Y730*
Y757*
X-3532*
Y682*
G37*
G36*
X-3877Y865D02*
X-3876Y865D01*
X-3875Y865*
X-3874Y865*
X-3872Y864*
X-3870Y864*
X-3867Y863*
X-3866Y862*
X-3864Y861*
X-3863Y860*
X-3862Y859*
X-3862Y859*
X-3861Y859*
X-3861Y859*
X-3861Y858*
X-3860Y858*
X-3860Y857*
X-3859Y856*
X-3858Y853*
X-3857Y851*
X-3856Y848*
X-3856Y847*
X-3856Y845*
Y845*
Y845*
Y845*
X-3856Y844*
X-3856Y842*
X-3856Y841*
X-3857Y839*
X-3858Y838*
X-3859Y836*
X-3859Y836*
X-3859Y835*
X-3860Y835*
X-3860Y834*
X-3862Y833*
X-3863Y832*
X-3864Y831*
X-3866Y830*
X-3866*
X-3866Y830*
X-3866Y830*
X-3865Y829*
X-3864Y829*
X-3863Y828*
X-3861Y827*
X-3859Y825*
X-3858Y824*
X-3857Y822*
X-3856Y822*
X-3856Y821*
X-3855Y820*
X-3855Y819*
X-3854Y817*
X-3854Y815*
X-3853Y813*
X-3853Y811*
Y811*
Y811*
Y810*
X-3853Y809*
X-3853Y808*
X-3854Y807*
X-3854Y806*
X-3854Y805*
X-3855Y802*
X-3855Y801*
X-3856Y799*
X-3857Y798*
X-3858Y797*
X-3859Y795*
X-3860Y794*
X-3860Y794*
X-3860Y794*
X-3861Y793*
X-3861Y793*
X-3862Y792*
X-3863Y792*
X-3864Y791*
X-3865Y791*
X-3866Y790*
X-3867Y790*
X-3869Y789*
X-3870Y788*
X-3872Y788*
X-3874Y788*
X-3876Y788*
X-3878Y787*
X-3879*
X-3880Y788*
X-3880Y788*
X-3881Y788*
X-3883Y788*
X-3884Y788*
X-3887Y789*
X-3889Y790*
X-3891Y790*
X-3892Y791*
X-3894Y792*
X-3895Y793*
X-3895Y793*
X-3895Y793*
X-3896Y793*
X-3896Y794*
X-3897Y795*
X-3898Y795*
X-3898Y796*
X-3899Y797*
X-3900Y799*
X-3901Y800*
X-3901Y801*
X-3902Y803*
X-3902Y805*
X-3903Y806*
X-3903Y808*
X-3903Y810*
Y811*
Y811*
Y811*
Y812*
X-3903Y813*
X-3903Y814*
X-3902Y816*
X-3902Y818*
X-3901Y820*
X-3900Y822*
Y822*
X-3900Y822*
X-3900Y823*
X-3899Y824*
X-3898Y825*
X-3896Y826*
X-3895Y827*
X-3893Y829*
X-3891Y830*
X-3891*
X-3891Y830*
X-3891Y830*
X-3892Y831*
X-3894Y831*
X-3895Y832*
X-3896Y833*
X-3898Y835*
X-3899Y836*
X-3899Y836*
X-3899Y837*
X-3900Y838*
X-3900Y839*
X-3900Y840*
X-3901Y842*
X-3901Y844*
X-3901Y845*
Y845*
Y846*
Y846*
X-3901Y847*
X-3901Y847*
X-3901Y848*
X-3900Y850*
X-3900Y852*
X-3899Y855*
X-3898Y856*
X-3897Y857*
X-3896Y858*
X-3895Y859*
X-3895Y859*
X-3895Y860*
X-3895Y860*
X-3894Y860*
X-3894Y861*
X-3893Y861*
X-3892Y862*
X-3891Y862*
X-3890Y863*
X-3889Y863*
X-3887Y864*
X-3886Y864*
X-3884Y864*
X-3882Y865*
X-3880Y865*
X-3879Y865*
X-3877*
X-3877Y865*
G37*
G36*
X-3965Y845D02*
X-3964Y845D01*
X-3963Y845*
X-3962Y844*
X-3960Y844*
X-3959Y844*
X-3957Y843*
X-3955Y842*
X-3954Y841*
X-3952Y841*
X-3951Y839*
X-3949Y838*
X-3948Y837*
X-3948Y837*
X-3948Y836*
X-3947Y836*
X-3947Y835*
X-3946Y834*
X-3946Y833*
X-3945Y832*
X-3944Y831*
X-3944Y829*
X-3943Y827*
X-3943Y825*
X-3942Y823*
X-3942Y820*
X-3941Y818*
X-3941Y815*
Y812*
X-3977*
Y812*
Y812*
Y811*
X-3977Y811*
X-3977Y810*
X-3977Y808*
X-3976Y807*
X-3976Y805*
X-3975Y803*
X-3974Y802*
X-3974Y802*
X-3973Y801*
X-3973Y801*
X-3972Y800*
X-3970Y800*
X-3969Y799*
X-3967Y799*
X-3966Y798*
X-3965*
X-3964Y799*
X-3964Y799*
X-3963Y799*
X-3962Y799*
X-3961Y800*
X-3960Y800*
X-3960Y800*
X-3959Y801*
X-3959Y801*
X-3959Y802*
X-3958Y803*
X-3957Y804*
X-3957Y805*
X-3956Y806*
X-3942Y804*
Y804*
X-3942Y804*
X-3942Y803*
X-3942Y803*
X-3943Y802*
X-3943Y801*
X-3944Y799*
X-3945Y798*
X-3947Y795*
X-3949Y794*
X-3951Y792*
X-3951*
X-3951Y792*
X-3951Y791*
X-3952Y791*
X-3952Y791*
X-3953Y791*
X-3954Y790*
X-3955Y790*
X-3957Y789*
X-3960Y788*
X-3962Y788*
X-3966Y788*
X-3966*
X-3967Y788*
X-3968*
X-3969Y788*
X-3971Y788*
X-3972Y788*
X-3974Y789*
X-3975Y789*
X-3977Y790*
X-3979Y791*
X-3981Y792*
X-3982Y793*
X-3984Y794*
X-3985Y795*
X-3987Y797*
X-3987Y797*
X-3987Y797*
X-3987Y798*
X-3988Y798*
X-3988Y799*
X-3988Y800*
X-3989Y801*
X-3989Y802*
X-3990Y803*
X-3990Y805*
X-3991Y806*
X-3991Y808*
X-3992Y810*
X-3992Y812*
X-3992Y814*
X-3992Y816*
Y816*
Y816*
Y817*
X-3992Y818*
X-3992Y819*
X-3992Y821*
X-3992Y822*
X-3991Y824*
X-3990Y827*
X-3990Y829*
X-3989Y831*
X-3988Y832*
X-3987Y834*
X-3986Y836*
X-3985Y837*
X-3985Y837*
X-3985Y838*
X-3984Y838*
X-3984Y838*
X-3983Y839*
X-3982Y840*
X-3981Y840*
X-3980Y841*
X-3979Y842*
X-3978Y843*
X-3976Y843*
X-3974Y844*
X-3973Y844*
X-3971Y845*
X-3969Y845*
X-3967Y845*
X-3966*
X-3965Y845*
G37*
G36*
X-3759Y865D02*
X-3758Y865D01*
X-3757Y865*
X-3756Y864*
X-3755Y864*
X-3753Y864*
X-3752Y863*
X-3750Y862*
X-3749Y862*
X-3748Y861*
X-3746Y860*
X-3745Y858*
X-3744Y857*
X-3744Y857*
X-3743Y857*
X-3743Y856*
X-3742Y855*
X-3742Y854*
X-3741Y853*
X-3741Y852*
X-3740Y850*
X-3739Y848*
X-3739Y845*
X-3738Y843*
X-3737Y840*
X-3737Y837*
X-3737Y834*
X-3736Y830*
X-3736Y826*
Y826*
Y826*
Y826*
Y825*
Y824*
X-3736Y823*
X-3736Y821*
X-3737Y819*
X-3737Y817*
X-3737Y814*
X-3738Y812*
X-3738Y809*
X-3739Y807*
X-3739Y804*
X-3740Y802*
X-3741Y799*
X-3742Y797*
X-3744Y795*
X-3744Y795*
X-3744Y795*
X-3744Y794*
X-3745Y794*
X-3745Y793*
X-3746Y793*
X-3747Y792*
X-3748Y791*
X-3749Y791*
X-3751Y790*
X-3752Y789*
X-3753Y789*
X-3755Y788*
X-3757Y788*
X-3759Y788*
X-3761Y787*
X-3761*
X-3762Y788*
X-3763*
X-3764Y788*
X-3765Y788*
X-3766Y788*
X-3767Y789*
X-3769Y789*
X-3770Y790*
X-3772Y790*
X-3773Y791*
X-3774Y792*
X-3776Y793*
X-3777Y794*
X-3779Y796*
X-3779Y796*
X-3779Y796*
X-3779Y797*
X-3780Y798*
X-3780Y798*
X-3781Y800*
X-3781Y801*
X-3782Y803*
X-3783Y805*
X-3783Y807*
X-3784Y810*
X-3784Y812*
X-3785Y815*
X-3785Y819*
X-3785Y822*
X-3785Y826*
Y826*
Y826*
Y827*
Y827*
Y828*
X-3785Y830*
X-3785Y832*
X-3785Y834*
X-3785Y836*
X-3784Y838*
X-3784Y841*
X-3784Y843*
X-3783Y846*
X-3782Y848*
X-3781Y851*
X-3780Y853*
X-3779Y855*
X-3778Y857*
X-3778Y857*
X-3778Y857*
X-3777Y858*
X-3777Y858*
X-3776Y859*
X-3775Y860*
X-3774Y860*
X-3773Y861*
X-3772Y862*
X-3771Y862*
X-3770Y863*
X-3768Y864*
X-3766Y864*
X-3765Y865*
X-3763Y865*
X-3761Y865*
X-3760*
X-3759Y865*
G37*
G36*
X-4258Y710D02*
X-4237Y682D01*
X-4255*
X-4266Y699*
X-4278Y682*
X-4294*
X-4275Y710*
X-4294Y736*
X-4276*
X-4266Y721*
X-4256Y736*
X-4239*
X-4258Y710*
G37*
G36*
X-4047Y738D02*
X-4046Y737D01*
X-4045Y737*
X-4044Y737*
X-4041Y737*
X-4038Y736*
X-4036Y735*
X-4034Y735*
X-4033Y734*
X-4033*
X-4033Y734*
X-4032Y733*
X-4032Y732*
X-4030Y731*
X-4029Y730*
X-4028Y728*
X-4027Y726*
X-4026Y723*
X-4039Y721*
Y721*
X-4040Y721*
X-4040Y722*
X-4040Y722*
X-4041Y723*
X-4041Y724*
X-4042Y725*
X-4043Y726*
X-4043Y726*
X-4043Y726*
X-4044Y726*
X-4045Y726*
X-4046Y727*
X-4047Y727*
X-4048Y727*
X-4050Y727*
X-4051*
X-4052Y727*
X-4053Y727*
X-4054Y727*
X-4056Y727*
X-4057Y726*
X-4058Y726*
X-4058*
X-4058Y725*
X-4059Y725*
X-4059Y724*
X-4060Y723*
X-4060Y723*
Y723*
Y722*
X-4059Y722*
X-4059Y721*
X-4059Y721*
X-4058Y720*
X-4058Y720*
X-4058Y720*
X-4058Y720*
X-4057Y720*
X-4057Y719*
X-4056Y719*
X-4055Y719*
X-4054Y718*
X-4053Y718*
X-4052Y718*
X-4050Y717*
X-4049Y717*
X-4047Y716*
X-4045Y716*
X-4045*
X-4044Y716*
X-4044Y716*
X-4043Y715*
X-4042Y715*
X-4041Y715*
X-4038Y714*
X-4036Y713*
X-4033Y712*
X-4032Y711*
X-4031Y711*
X-4030Y710*
X-4029Y709*
X-4028Y709*
X-4028Y709*
X-4027Y708*
X-4026Y707*
X-4025Y705*
X-4025Y703*
X-4024Y701*
X-4024Y699*
Y699*
Y698*
Y698*
X-4024Y697*
X-4024Y697*
X-4024Y696*
X-4025Y694*
X-4026Y692*
X-4026Y691*
X-4027Y690*
X-4027Y689*
X-4028Y688*
X-4029Y687*
X-4030Y686*
X-4030Y686*
X-4031Y686*
X-4031Y685*
X-4032Y685*
X-4032Y685*
X-4033Y684*
X-4034Y684*
X-4035Y683*
X-4036Y683*
X-4038Y682*
X-4039Y682*
X-4041Y681*
X-4043Y681*
X-4045Y681*
X-4047Y680*
X-4049Y680*
X-4050*
X-4051Y680*
X-4052*
X-4053Y681*
X-4054Y681*
X-4055Y681*
X-4058Y681*
X-4061Y682*
X-4064Y683*
X-4065Y684*
X-4067Y685*
X-4067Y685*
X-4067Y685*
X-4067Y685*
X-4068Y686*
X-4069Y687*
X-4070Y688*
X-4072Y690*
X-4073Y692*
X-4074Y694*
X-4075Y697*
X-4061Y699*
Y699*
X-4060Y699*
X-4060Y698*
X-4060Y697*
X-4059Y696*
X-4059Y695*
X-4058Y694*
X-4057Y693*
X-4057Y693*
X-4056Y693*
X-4056Y692*
X-4055Y692*
X-4054Y692*
X-4052Y691*
X-4051Y691*
X-4049Y691*
X-4048*
X-4047Y691*
X-4046Y691*
X-4044Y691*
X-4043Y692*
X-4042Y692*
X-4040Y693*
X-4040Y693*
X-4040Y693*
X-4040Y694*
X-4039Y694*
X-4039Y694*
X-4039Y695*
X-4039Y696*
X-4039Y697*
Y697*
Y697*
X-4039Y698*
X-4039Y699*
X-4040Y700*
X-4040Y700*
X-4040Y700*
X-4041Y700*
X-4041Y700*
X-4042Y701*
X-4043Y701*
X-4044Y701*
X-4045*
X-4045Y702*
X-4046Y702*
X-4047Y702*
X-4049Y702*
X-4050Y703*
X-4052Y703*
X-4054Y704*
X-4058Y705*
X-4059Y705*
X-4061Y706*
X-4063Y707*
X-4064Y707*
X-4066Y708*
X-4067Y708*
X-4067Y709*
X-4067Y709*
X-4067Y709*
X-4068Y709*
X-4069Y710*
X-4070Y712*
X-4071Y714*
X-4072Y716*
X-4073Y717*
X-4073Y718*
X-4073Y719*
X-4073Y721*
Y721*
Y721*
Y721*
X-4073Y722*
X-4073Y723*
X-4073Y723*
X-4073Y725*
X-4072Y727*
X-4071Y729*
X-4070Y730*
X-4069Y731*
X-4069Y732*
X-4068Y733*
X-4067Y733*
X-4067Y733*
X-4067Y733*
X-4066Y734*
X-4066Y734*
X-4065Y734*
X-4064Y735*
X-4063Y735*
X-4062Y736*
X-4061Y736*
X-4059Y737*
X-4058Y737*
X-4056Y737*
X-4054Y737*
X-4052Y738*
X-4048*
X-4047Y738*
G37*
G36*
X-4102D02*
X-4100Y737D01*
X-4099Y737*
X-4098Y737*
X-4096Y736*
X-4095Y736*
X-4094Y736*
X-4094Y736*
X-4093Y735*
X-4092Y735*
X-4091Y734*
X-4090Y733*
X-4089Y732*
X-4088Y731*
X-4088Y731*
X-4088Y731*
X-4088Y730*
X-4087Y730*
X-4087Y729*
X-4086Y728*
X-4086Y727*
X-4086Y725*
Y725*
X-4086Y725*
X-4085Y724*
X-4085Y723*
X-4085Y721*
X-4085Y720*
X-4085Y718*
Y716*
Y682*
X-4099*
Y709*
Y710*
Y710*
Y710*
Y711*
Y712*
Y712*
X-4099Y714*
X-4099Y716*
X-4100Y718*
X-4100Y720*
X-4100Y720*
X-4100Y721*
Y721*
X-4100Y721*
X-4101Y722*
X-4101Y722*
X-4102Y724*
X-4103Y724*
X-4103Y725*
X-4103Y725*
X-4104Y725*
X-4104Y725*
X-4105Y726*
X-4106Y726*
X-4106Y726*
X-4107Y726*
X-4108Y727*
X-4109*
X-4110Y726*
X-4111Y726*
X-4112Y726*
X-4113Y726*
X-4114Y725*
X-4115Y724*
X-4115Y724*
X-4116Y724*
X-4116Y724*
X-4117Y723*
X-4117Y722*
X-4118Y721*
X-4119Y720*
X-4119Y719*
Y719*
X-4119Y718*
X-4119Y717*
X-4120Y716*
X-4120Y715*
X-4120Y714*
X-4120Y713*
Y712*
X-4120Y711*
X-4120Y709*
Y708*
Y706*
Y682*
X-4135*
Y736*
X-4121*
Y728*
X-4121Y728*
X-4121Y729*
X-4121Y729*
X-4120Y730*
X-4119Y731*
X-4119Y731*
X-4118Y732*
X-4116Y733*
X-4115Y734*
X-4114Y735*
X-4112Y735*
X-4111Y736*
X-4109Y737*
X-4107Y737*
X-4105Y738*
X-4103Y738*
X-4103*
X-4102Y738*
G37*
G36*
X-3596D02*
X-3595Y737D01*
X-3594Y737*
X-3592Y736*
X-3590Y736*
X-3589Y735*
X-3593Y722*
X-3593Y722*
X-3594Y723*
X-3595Y723*
X-3596Y723*
X-3597Y724*
X-3598Y724*
X-3599Y725*
X-3600Y725*
X-3601*
X-3601Y725*
X-3602Y724*
X-3603Y724*
X-3603Y724*
X-3604Y723*
X-3605Y723*
X-3605Y723*
X-3606Y723*
X-3606Y722*
X-3606Y721*
X-3607Y721*
X-3608Y720*
X-3608Y718*
X-3609Y717*
Y717*
X-3609Y716*
X-3609Y716*
Y715*
X-3609Y715*
X-3609Y714*
X-3609Y713*
X-3609Y712*
X-3609Y710*
X-3609Y709*
Y707*
X-3610Y705*
X-3610Y703*
Y701*
Y698*
Y682*
X-3624*
Y736*
X-3611*
Y729*
X-3611Y729*
X-3610Y729*
X-3610Y730*
X-3609Y732*
X-3608Y733*
X-3607Y734*
X-3606Y735*
X-3605Y736*
X-3604Y736*
X-3604Y736*
X-3603Y736*
X-3603Y737*
X-3602Y737*
X-3601Y737*
X-3600Y738*
X-3598Y738*
X-3597*
X-3596Y738*
G37*
G36*
X-3884D02*
X-3883Y737D01*
X-3882Y737*
X-3880Y737*
X-3879Y736*
X-3877Y736*
X-3877Y736*
X-3877Y736*
X-3876Y735*
X-3875Y735*
X-3874Y734*
X-3873Y733*
X-3872Y732*
X-3871Y731*
X-3871Y731*
X-3871Y731*
X-3870Y730*
X-3870Y730*
X-3869Y729*
X-3869Y728*
X-3869Y727*
X-3868Y725*
Y725*
X-3868Y725*
X-3868Y724*
X-3868Y723*
X-3868Y721*
X-3867Y720*
X-3867Y718*
Y716*
Y682*
X-3882*
Y709*
Y710*
Y710*
Y710*
Y711*
Y712*
Y712*
X-3882Y714*
X-3882Y716*
X-3882Y718*
X-3883Y720*
X-3883Y720*
X-3883Y721*
Y721*
X-3883Y721*
X-3883Y722*
X-3884Y722*
X-3885Y724*
X-3885Y724*
X-3886Y725*
X-3886Y725*
X-3886Y725*
X-3887Y725*
X-3887Y726*
X-3888Y726*
X-3889Y726*
X-3890Y726*
X-3891Y727*
X-3892*
X-3892Y726*
X-3893Y726*
X-3894Y726*
X-3895Y726*
X-3897Y725*
X-3898Y724*
X-3898Y724*
X-3898Y724*
X-3899Y724*
X-3899Y723*
X-3900Y722*
X-3901Y721*
X-3901Y720*
X-3902Y719*
Y719*
X-3902Y718*
X-3902Y717*
X-3902Y716*
X-3902Y715*
X-3903Y714*
X-3903Y713*
Y712*
X-3903Y711*
X-3903Y709*
Y708*
Y706*
Y682*
X-3917*
Y736*
X-3904*
Y728*
X-3904Y728*
X-3904Y729*
X-3903Y729*
X-3903Y730*
X-3902Y731*
X-3901Y731*
X-3900Y732*
X-3899Y733*
X-3898Y734*
X-3896Y735*
X-3895Y735*
X-3893Y736*
X-3892Y737*
X-3890Y737*
X-3888Y738*
X-3886Y738*
X-3885*
X-3884Y738*
G37*
G36*
X2Y867D02*
X4Y865D01*
X6Y863*
X8Y860*
X12Y855*
Y848*
X11Y847*
X8Y845*
X4Y841*
X0Y836*
X-5Y830*
X-11Y822*
X-16Y814*
X-21Y806*
X-25*
X-27Y807*
X-31Y809*
X-35Y811*
X-39Y817*
X-43Y825*
X-45Y830*
X-46Y836*
X-46Y842*
Y851*
Y863*
X-39Y869*
X0*
X2Y867*
G37*
G36*
X207Y749D02*
X213Y745D01*
X220Y739*
X221Y734*
X222Y729*
Y726*
Y725*
X221Y722*
X217Y719*
X214Y719*
X210Y718*
X209*
X207Y719*
X201Y722*
X197Y729*
X195Y733*
X194Y739*
Y741*
Y742*
X195Y746*
X199Y749*
X200Y750*
X205*
X207Y749*
G37*
G36*
X-65Y849D02*
X-58Y844D01*
X-52Y837*
X-50Y832*
X-49Y827*
X-51Y826*
X-55Y823*
X-59Y820*
X-63Y819*
X-65*
X-68Y822*
X-71Y823*
X-74Y826*
X-76Y831*
X-80Y837*
Y838*
X-78Y842*
X-75Y846*
X-72Y848*
X-67Y851*
X-66*
X-65Y849*
G37*
G36*
X-48Y901D02*
X-45Y899D01*
X-40Y897*
X-37Y893*
X-35Y888*
X-34Y882*
Y881*
X-35Y879*
X-37Y877*
X-42Y873*
X-47*
X-54Y876*
X-57Y878*
X-60Y881*
X-62Y885*
X-63Y892*
Y894*
Y895*
X-62Y897*
X-59Y899*
X-55Y902*
X-51*
X-48Y901*
G37*
G36*
X-67Y880D02*
X-61Y876D01*
X-57Y873*
X-55Y869*
Y858*
Y857*
X-56Y855*
X-57Y853*
X-60Y852*
X-71*
X-73Y854*
X-75Y856*
X-77Y858*
X-80Y862*
X-83Y866*
Y873*
Y874*
X-82Y876*
X-80Y879*
X-76Y882*
X-73*
X-67Y880*
G37*
G36*
X185Y729D02*
X190Y728D01*
X194Y724*
X199Y718*
Y708*
Y707*
X198Y704*
X194Y701*
X192Y700*
X189Y699*
X188*
X187Y700*
X182Y703*
X176Y709*
X170Y716*
Y720*
Y721*
X172Y724*
X176Y727*
X180Y729*
X183Y730*
X185Y729*
G37*
G36*
X12Y716D02*
X15Y713D01*
X17Y710*
X21Y706*
X25Y699*
X24Y698*
X22Y695*
X20Y691*
X18Y690*
X17Y689*
X12*
X6Y691*
X0Y695*
X-3Y698*
X-5Y702*
Y708*
Y709*
X-5Y709*
X-2Y713*
X1Y716*
X4Y718*
X8*
X12Y716*
G37*
G36*
X27Y738D02*
X31Y737D01*
X35Y734*
X39Y731*
X43Y727*
X46Y720*
X45Y719*
X43Y716*
X41Y712*
X39Y711*
X38Y710*
X26*
X25Y712*
X20Y716*
X17Y719*
X15Y723*
Y730*
Y731*
X15Y733*
X17Y736*
X22Y739*
X25*
X27Y738*
G37*
G36*
X240Y746D02*
X244Y744D01*
X249Y739*
X253Y733*
Y723*
Y722*
X252Y719*
X249Y718*
X247Y717*
X243Y716*
X242*
X241Y718*
X234Y721*
X228Y729*
X226Y733*
X225Y739*
X226Y739*
X230Y743*
X234Y746*
X238Y747*
X240Y746*
G37*
G36*
X66Y738D02*
X70Y734D01*
X75Y727*
X76Y723*
X77Y718*
Y717*
X76Y716*
X74Y713*
X69Y710*
X60*
X58Y712*
X54Y716*
X51Y719*
X48Y723*
Y733*
Y734*
X49Y736*
X51Y738*
X54Y739*
X65*
X66Y738*
G37*
G36*
X147Y243D02*
X153D01*
Y235*
X147*
Y225*
X137*
Y235*
X117*
Y243*
X139Y276*
X147*
Y243*
G37*
G36*
X-710Y775D02*
X-728D01*
X-729Y766*
X-729*
X-729Y766*
X-729Y766*
X-728Y766*
X-727Y767*
X-726Y767*
X-725Y767*
X-724Y768*
X-723Y768*
X-722*
X-722Y768*
X-721Y767*
X-721Y767*
X-720Y767*
X-719Y767*
X-717Y766*
X-716Y766*
X-716Y766*
X-715Y765*
X-714Y764*
X-713Y764*
X-712Y763*
X-712Y763*
X-712Y763*
X-711Y762*
X-711Y762*
X-711Y762*
X-710Y761*
X-710Y760*
X-710Y760*
X-709Y759*
X-709Y758*
X-708Y757*
X-708Y756*
X-708Y755*
X-708Y753*
X-707Y752*
X-707Y751*
Y751*
Y750*
Y750*
X-707Y750*
Y749*
X-708Y748*
X-708Y748*
X-708Y747*
X-708Y745*
X-709Y743*
X-709Y742*
X-710Y741*
X-710Y740*
X-711Y739*
X-711Y739*
X-711Y739*
X-712Y739*
X-712Y738*
X-712Y738*
X-713Y737*
X-714Y737*
X-715Y736*
X-716Y736*
X-717Y735*
X-718Y734*
X-719Y734*
X-720Y733*
X-722Y733*
X-723Y733*
X-725Y733*
X-725*
X-726Y733*
X-727Y733*
X-727Y733*
X-728Y733*
X-729Y733*
X-731Y734*
X-733Y734*
X-734Y735*
X-734Y735*
X-735Y736*
X-736Y737*
X-736Y737*
X-736Y737*
X-737Y737*
X-737Y737*
X-737Y738*
X-738Y738*
X-738Y739*
X-738Y739*
X-739Y740*
X-739Y741*
X-740Y742*
X-741Y744*
X-741Y745*
X-741Y747*
X-732Y748*
Y747*
X-732Y747*
X-732Y746*
X-731Y746*
X-731Y745*
X-731Y744*
X-730Y743*
X-729Y742*
X-729Y742*
X-729Y742*
X-729Y742*
X-728Y741*
X-727Y741*
X-727Y741*
X-726Y741*
X-725Y741*
X-724*
X-724Y741*
X-724Y741*
X-723Y741*
X-722Y741*
X-721Y742*
X-720Y742*
X-719Y743*
X-719Y743*
X-719Y743*
X-719Y744*
X-718Y745*
X-718Y746*
X-718Y747*
X-717Y749*
X-717Y750*
Y751*
Y751*
Y751*
Y751*
X-717Y752*
X-718Y753*
X-718Y754*
X-718Y755*
X-719Y757*
X-719Y757*
X-720Y758*
X-720Y758*
X-720Y758*
X-721Y759*
X-722Y759*
X-723Y759*
X-724Y760*
X-725Y760*
X-725*
X-726Y760*
X-726Y760*
X-727Y759*
X-729Y759*
X-730Y758*
X-730Y758*
X-731Y757*
X-732Y757*
X-732Y756*
X-740Y757*
X-735Y784*
X-710*
Y775*
G37*
G36*
X189Y266D02*
X171D01*
X170Y257*
X170*
X170Y257*
X170Y257*
X171Y258*
X172Y258*
X173Y258*
X174Y258*
X175Y259*
X176Y259*
X177*
X177Y259*
X178Y259*
X178Y259*
X179Y258*
X180Y258*
X182Y258*
X183Y257*
X183Y257*
X184Y256*
X185Y256*
X186Y255*
X187Y254*
X187Y254*
X187Y254*
X188Y253*
X188Y253*
X188Y253*
X189Y252*
X189Y251*
X189Y251*
X190Y250*
X190Y249*
X191Y248*
X191Y247*
X191Y246*
X191Y245*
X192Y243*
X192Y242*
Y242*
Y242*
Y241*
X192Y241*
Y240*
X191Y240*
X191Y239*
X191Y238*
X191Y236*
X190Y234*
X190Y233*
X189Y232*
X189Y232*
X188Y231*
X188Y231*
X188Y230*
X187Y230*
X187Y230*
X187Y229*
X186Y228*
X185Y228*
X184Y227*
X183Y227*
X182Y226*
X181Y225*
X180Y225*
X179Y225*
X177Y224*
X176Y224*
X174Y224*
X174*
X173Y224*
X173Y224*
X172Y224*
X171Y224*
X170Y224*
X168Y225*
X166Y226*
X166Y226*
X165Y226*
X164Y227*
X163Y228*
X163Y228*
X163Y228*
X162Y228*
X162Y228*
X162Y229*
X161Y229*
X161Y230*
X161Y230*
X160Y231*
X160Y232*
X159Y234*
X158Y235*
X158Y237*
X158Y238*
X167Y239*
Y239*
X167Y238*
X168Y238*
X168Y237*
X168Y236*
X168Y235*
X169Y234*
X170Y234*
X170Y234*
X170Y233*
X171Y233*
X171Y233*
X172Y232*
X173Y232*
X173Y232*
X174Y232*
X175*
X175Y232*
X176Y232*
X176Y232*
X177Y232*
X178Y233*
X179Y233*
X180Y234*
X180Y234*
X180Y235*
X180Y235*
X181Y236*
X181Y237*
X181Y238*
X182Y240*
X182Y242*
Y242*
Y242*
Y242*
Y242*
X182Y243*
X181Y244*
X181Y245*
X181Y247*
X180Y248*
X180Y249*
X180Y249*
X179Y249*
X179Y249*
X178Y250*
X177Y250*
X176Y251*
X175Y251*
X174Y251*
X174*
X173Y251*
X173Y251*
X172Y251*
X171Y250*
X169Y249*
X169Y249*
X168Y249*
X167Y248*
X167Y247*
X159Y248*
X164Y275*
X189*
Y266*
G37*
G36*
X-3863Y288D02*
X-3862D01*
X-3862Y288*
X-3860Y288*
X-3859Y288*
X-3857Y287*
X-3856Y286*
X-3855Y286*
X-3854Y285*
X-3854*
X-3854Y285*
X-3854Y285*
X-3854Y285*
X-3853Y284*
X-3853Y284*
X-3852Y283*
X-3852Y281*
X-3851Y280*
X-3850Y278*
X-3849Y276*
X-3859Y275*
Y275*
X-3859Y275*
X-3859Y276*
X-3859Y276*
X-3859Y277*
X-3860Y278*
X-3860Y278*
X-3861Y279*
X-3861Y279*
X-3861Y279*
X-3861Y279*
X-3862Y280*
X-3862Y280*
X-3863Y280*
X-3864Y280*
X-3864Y280*
X-3865*
X-3865Y280*
X-3866Y280*
X-3866Y280*
X-3867Y280*
X-3868Y279*
X-3869Y279*
X-3870Y278*
X-3870Y277*
X-3870Y277*
X-3870Y277*
X-3870Y277*
X-3870Y276*
X-3870Y276*
X-3871Y275*
X-3871Y274*
X-3871Y274*
X-3871Y273*
X-3872Y272*
X-3872Y270*
X-3872Y269*
X-3872Y268*
X-3872Y266*
X-3872Y266*
X-3872Y266*
X-3872Y267*
X-3872Y267*
X-3871Y267*
X-3871Y268*
X-3870Y268*
X-3868Y269*
X-3867Y270*
X-3866Y270*
X-3865Y270*
X-3864Y270*
X-3863Y270*
X-3863*
X-3862Y270*
X-3862Y270*
X-3861Y270*
X-3860Y270*
X-3860Y270*
X-3858Y269*
X-3857Y269*
X-3856Y269*
X-3855Y268*
X-3855Y267*
X-3854Y267*
X-3853Y266*
X-3853Y266*
X-3853Y266*
X-3852Y265*
X-3852Y265*
X-3852Y265*
X-3852Y264*
X-3851Y263*
X-3851Y263*
X-3850Y262*
X-3850Y261*
X-3850Y260*
X-3849Y259*
X-3849Y258*
X-3849Y257*
X-3849Y255*
X-3849Y254*
Y254*
Y254*
Y253*
X-3849Y253*
X-3849Y252*
X-3849Y251*
X-3849Y250*
X-3849Y249*
X-3850Y247*
X-3850Y246*
X-3850Y245*
X-3851Y244*
X-3852Y243*
X-3852Y242*
X-3853Y241*
X-3853Y241*
X-3853Y241*
X-3854Y241*
X-3854Y241*
X-3854Y240*
X-3855Y240*
X-3856Y240*
X-3856Y239*
X-3857Y239*
X-3858Y238*
X-3859Y238*
X-3860Y237*
X-3861Y237*
X-3862Y237*
X-3863Y237*
X-3865Y237*
X-3865*
X-3866Y237*
X-3866*
X-3867Y237*
X-3867Y237*
X-3868Y237*
X-3869Y237*
X-3870Y238*
X-3871Y238*
X-3872Y239*
X-3873Y239*
X-3874Y240*
X-3875Y241*
X-3876Y242*
X-3877Y243*
X-3877Y243*
X-3878Y243*
X-3878Y243*
X-3878Y244*
X-3879Y244*
X-3879Y245*
X-3879Y246*
X-3880Y247*
X-3880Y249*
X-3881Y250*
X-3881Y252*
X-3881Y253*
X-3882Y255*
X-3882Y257*
X-3882Y260*
X-3882Y262*
Y262*
Y262*
Y263*
Y263*
Y264*
X-3882Y264*
X-3882Y266*
X-3882Y267*
X-3882Y268*
X-3882Y270*
X-3881Y272*
X-3881Y273*
X-3881Y275*
X-3880Y277*
X-3880Y278*
X-3879Y280*
X-3878Y281*
X-3877Y282*
X-3877Y282*
X-3877Y283*
X-3877Y283*
X-3876Y283*
X-3876Y284*
X-3875Y284*
X-3874Y285*
X-3874Y285*
X-3873Y286*
X-3872Y286*
X-3871Y287*
X-3869Y287*
X-3868Y288*
X-3867Y288*
X-3865Y288*
X-3864Y288*
X-3863*
X-3863Y288*
G37*
G36*
X-3904D02*
X-3903Y288D01*
X-3902Y288*
X-3901Y288*
X-3901Y288*
X-3899Y287*
X-3897Y287*
X-3896Y286*
X-3895Y286*
X-3894Y285*
X-3893Y284*
X-3893Y284*
X-3893Y284*
X-3893Y284*
X-3892Y284*
X-3892Y283*
X-3892Y283*
X-3891Y282*
X-3891Y282*
X-3890Y280*
X-3889Y278*
X-3889Y277*
X-3889Y276*
X-3889Y275*
X-3889Y274*
Y274*
Y274*
X-3889Y273*
X-3889Y272*
X-3889Y271*
X-3889Y270*
X-3890Y269*
X-3890Y268*
X-3890Y268*
X-3890Y267*
X-3891Y267*
X-3891Y266*
X-3892Y265*
X-3892Y264*
X-3893Y263*
X-3894Y261*
X-3894Y261*
X-3894Y261*
X-3895Y260*
X-3895Y260*
X-3896Y259*
X-3897Y258*
X-3899Y256*
X-3900Y255*
X-3900Y255*
X-3900Y255*
X-3901Y255*
X-3901Y254*
X-3902Y254*
X-3903Y253*
X-3904Y252*
X-3905Y251*
X-3906Y250*
X-3906Y250*
X-3906Y249*
X-3906Y249*
X-3906Y249*
X-3907Y249*
X-3907Y248*
X-3907Y248*
X-3908Y247*
X-3889*
Y238*
X-3923*
Y238*
Y238*
X-3923Y238*
X-3923Y239*
X-3923Y239*
X-3922Y240*
X-3922Y241*
X-3922Y242*
X-3921Y244*
X-3920Y246*
X-3919Y247*
Y247*
X-3919Y248*
X-3919Y248*
X-3919Y248*
X-3919Y249*
X-3918Y249*
X-3918Y250*
X-3917Y251*
X-3916Y251*
X-3916Y252*
X-3915Y253*
X-3914Y254*
X-3913Y255*
X-3911Y257*
X-3910Y258*
X-3909Y259*
X-3909Y259*
X-3908Y260*
X-3908Y260*
X-3908Y260*
X-3907Y261*
X-3906Y261*
X-3905Y263*
X-3904Y264*
X-3902Y266*
X-3902Y266*
X-3901Y267*
X-3901Y267*
X-3901Y268*
X-3900Y268*
X-3900Y268*
X-3900Y269*
X-3900Y270*
X-3899Y270*
X-3899Y272*
X-3899Y273*
X-3899Y274*
Y274*
Y274*
Y274*
X-3899Y275*
X-3899Y276*
X-3899Y276*
X-3899Y277*
X-3900Y278*
X-3900Y279*
X-3900Y279*
X-3901Y279*
X-3901Y279*
X-3902Y280*
X-3902Y280*
X-3903Y280*
X-3904Y280*
X-3905Y280*
X-3906*
X-3906Y280*
X-3907Y280*
X-3908Y280*
X-3908Y280*
X-3909Y279*
X-3910Y279*
X-3910Y279*
X-3910Y278*
X-3911Y278*
X-3911Y277*
X-3911Y276*
X-3912Y275*
X-3912Y274*
X-3912Y273*
X-3922Y273*
Y274*
X-3921Y274*
Y274*
X-3921Y275*
X-3921Y275*
X-3921Y276*
X-3921Y277*
X-3921Y278*
X-3920Y280*
X-3919Y282*
X-3918Y283*
X-3918Y283*
X-3917Y284*
X-3916Y285*
X-3916Y285*
X-3916Y285*
X-3916Y285*
X-3915Y286*
X-3915Y286*
X-3914Y286*
X-3914Y286*
X-3913Y287*
X-3912Y287*
X-3911Y287*
X-3910Y288*
X-3907Y288*
X-3906Y288*
X-3905Y288*
X-3904*
X-3904Y288*
G37*
G36*
X-1006Y278D02*
X-1005Y277D01*
X-1005Y277*
X-1004Y277*
X-1003Y277*
X-1002Y277*
X-1001Y276*
X-1000Y276*
X-999Y275*
X-998Y275*
X-997Y274*
X-997Y273*
X-996Y272*
X-996Y272*
X-996Y272*
X-995Y272*
X-995Y271*
X-995Y270*
X-994Y270*
X-994Y269*
X-993Y267*
X-993Y266*
X-992Y265*
X-992Y263*
X-992Y261*
X-991Y259*
X-991Y257*
X-991Y254*
X-991Y252*
Y252*
Y252*
Y251*
Y251*
Y250*
X-991Y249*
X-991Y248*
X-991Y247*
X-991Y245*
X-991Y244*
X-992Y242*
X-992Y240*
X-992Y239*
X-993Y237*
X-993Y235*
X-994Y234*
X-995Y232*
X-996Y231*
X-996Y231*
X-996Y231*
X-996Y231*
X-997Y230*
X-997Y230*
X-997Y229*
X-998Y229*
X-999Y229*
X-1000Y228*
X-1000Y228*
X-1001Y227*
X-1002Y227*
X-1003Y226*
X-1005Y226*
X-1006Y226*
X-1007Y226*
X-1008*
X-1008Y226*
X-1008*
X-1009Y226*
X-1010Y226*
X-1011Y226*
X-1011Y227*
X-1012Y227*
X-1013Y227*
X-1014Y228*
X-1015Y228*
X-1016Y229*
X-1017Y230*
X-1018Y231*
X-1019Y232*
X-1019Y232*
X-1019Y232*
X-1020Y232*
X-1020Y233*
X-1020Y233*
X-1021Y234*
X-1021Y235*
X-1021Y236*
X-1022Y238*
X-1022Y239*
X-1023Y241*
X-1023Y242*
X-1023Y245*
X-1023Y247*
X-1023Y249*
X-1024Y252*
Y252*
Y252*
Y252*
Y252*
Y253*
X-1023Y254*
X-1023Y255*
X-1023Y257*
X-1023Y258*
X-1023Y260*
X-1023Y261*
X-1022Y263*
X-1022Y265*
X-1022Y267*
X-1021Y268*
X-1020Y270*
X-1020Y271*
X-1019Y272*
X-1019Y272*
X-1018Y273*
X-1018Y273*
X-1018Y273*
X-1018Y274*
X-1017Y274*
X-1016Y274*
X-1016Y275*
X-1015Y275*
X-1014Y276*
X-1013Y276*
X-1012Y277*
X-1011Y277*
X-1010Y277*
X-1009Y278*
X-1007Y278*
X-1007*
X-1006Y278*
G37*
G36*
X-17Y901D02*
X-15D01*
X-11Y899*
X-6Y897*
X-4Y893*
X-1Y890*
X0Y884*
X-1Y883*
X-3Y879*
X-5Y875*
X-6Y874*
X-8Y873*
X-14*
X-16Y874*
X-21Y876*
X-25Y879*
X-27Y883*
X-30Y887*
X-31Y894*
Y895*
X-30Y897*
X-28Y899*
X-24Y902*
X-20*
X-17Y901*
G37*
G36*
X-1034Y245D02*
X-1028D01*
Y237*
X-1034*
Y227*
X-1044*
Y237*
X-1064*
Y245*
X-1043Y278*
X-1034*
Y245*
G37*
G36*
X-763Y784D02*
X-762Y784D01*
X-762Y784*
X-761Y784*
X-760Y784*
X-758Y783*
X-756Y783*
X-755Y782*
X-754Y782*
X-753Y781*
X-752Y780*
X-752Y780*
X-752Y780*
X-752Y780*
X-752Y780*
X-751Y779*
X-751Y779*
X-751Y778*
X-750Y778*
X-749Y776*
X-749Y775*
X-748Y774*
X-748Y773*
X-748Y771*
X-748Y770*
Y770*
Y770*
X-748Y769*
X-748Y768*
X-748Y767*
X-749Y766*
X-749Y765*
X-749Y764*
X-749Y764*
X-750Y763*
X-750Y763*
X-750Y762*
X-751Y761*
X-751Y760*
X-752Y759*
X-753Y757*
X-753Y757*
X-754Y757*
X-754Y757*
X-755Y756*
X-756Y755*
X-757Y754*
X-758Y752*
X-760Y751*
X-760Y751*
X-760Y751*
X-760Y751*
X-760Y750*
X-761Y750*
X-762Y749*
X-763Y748*
X-764Y747*
X-765Y746*
X-765Y746*
X-765Y745*
X-765Y745*
X-766Y745*
X-766Y745*
X-766Y744*
X-767Y744*
X-767Y743*
X-748*
Y734*
X-782*
Y734*
Y734*
X-782Y734*
X-782Y735*
X-782Y735*
X-782Y736*
X-781Y737*
X-781Y738*
X-780Y740*
X-780Y742*
X-779Y743*
Y743*
X-779Y744*
X-778Y744*
X-778Y744*
X-778Y745*
X-777Y745*
X-777Y746*
X-776Y747*
X-776Y747*
X-775Y748*
X-774Y749*
X-773Y750*
X-772Y752*
X-771Y753*
X-769Y754*
X-768Y755*
X-768Y756*
X-768Y756*
X-767Y756*
X-767Y757*
X-766Y757*
X-766Y758*
X-764Y759*
X-763Y760*
X-762Y762*
X-761Y762*
X-761Y763*
X-760Y763*
X-760Y764*
X-760Y764*
X-760Y764*
X-759Y765*
X-759Y766*
X-758Y767*
X-758Y768*
X-758Y769*
X-758Y770*
Y770*
Y770*
Y770*
X-758Y771*
X-758Y772*
X-758Y772*
X-759Y773*
X-759Y774*
X-760Y775*
X-760Y775*
X-760Y775*
X-760Y775*
X-761Y776*
X-762Y776*
X-762Y776*
X-763Y776*
X-764Y776*
X-765*
X-765Y776*
X-766Y776*
X-767Y776*
X-768Y776*
X-768Y775*
X-769Y775*
X-769Y775*
X-770Y774*
X-770Y774*
X-770Y773*
X-770Y772*
X-771Y771*
X-771Y770*
X-771Y769*
X-781Y770*
Y770*
X-781Y770*
Y770*
X-781Y771*
X-781Y772*
X-780Y772*
X-780Y773*
X-780Y774*
X-779Y776*
X-778Y778*
X-778Y779*
X-777Y780*
X-776Y780*
X-775Y781*
X-775Y781*
X-775Y781*
X-775Y781*
X-775Y782*
X-774Y782*
X-774Y782*
X-773Y782*
X-772Y783*
X-772Y783*
X-771Y783*
X-769Y784*
X-767Y784*
X-765Y784*
X-764Y784*
X-763*
X-763Y784*
G37*
G36*
X-3336Y738D02*
X-3345D01*
Y774*
X-3345Y774*
X-3346Y774*
X-3346Y774*
X-3346Y773*
X-3347Y773*
X-3347Y773*
X-3348Y772*
X-3349Y771*
X-3350Y771*
X-3351Y770*
X-3352Y770*
X-3353Y769*
X-3355Y768*
X-3358Y767*
Y776*
X-3358*
X-3358Y776*
X-3357Y776*
X-3357Y776*
X-3356Y776*
X-3355Y777*
X-3354Y777*
X-3353Y778*
X-3351Y779*
X-3350Y780*
X-3350Y780*
X-3349Y780*
X-3349Y781*
X-3349Y781*
X-3348Y782*
X-3347Y783*
X-3346Y784*
X-3345Y785*
X-3344Y787*
X-3343Y788*
X-3336*
Y738*
G37*
G36*
X190Y696D02*
X195Y691D01*
X200Y685*
X200Y679*
X201Y674*
X194Y668*
X189*
X182Y671*
X179Y673*
X176Y676*
X174Y680*
X173Y687*
Y689*
Y690*
X174Y692*
X176Y694*
X180Y697*
X190*
X190Y696*
G37*
G36*
X241Y569D02*
X244Y568D01*
X248Y566*
X252Y565*
X255Y561*
X258Y557*
X259Y552*
X258Y550*
X256Y546*
X253Y543*
X252Y542*
X251Y541*
X247*
X245Y542*
X241Y543*
X238Y544*
X234Y546*
X231Y550*
X229Y554*
X228Y560*
Y561*
X229Y562*
X230Y565*
X232Y568*
X233Y570*
X239*
X241Y569*
G37*
G36*
X198Y514D02*
X202Y510D01*
X208Y503*
X209Y499*
X210Y494*
Y493*
X209Y493*
X206Y490*
X201Y487*
X193*
X191Y489*
X187Y493*
X184Y495*
X180Y500*
Y511*
Y512*
X181Y513*
X183Y514*
X186Y515*
X197*
X198Y514*
G37*
G36*
X388Y600D02*
X393Y597D01*
X398Y593*
X404Y585*
Y577*
Y576*
X402Y575*
X398Y572*
X395Y571*
X391Y570*
X390*
X388Y571*
X383Y575*
X378Y581*
X376Y585*
X375Y591*
Y594*
Y595*
X376Y596*
X380Y598*
X383Y600*
X386Y601*
X388Y600*
G37*
G36*
X366Y579D02*
X369Y578D01*
X373Y577*
X377Y575*
X380Y572*
X383Y567*
X384Y562*
X383Y560*
X381Y557*
X378Y554*
X377Y553*
X375Y552*
X372*
X369Y553*
X366Y554*
X362Y554*
X358Y557*
X355Y560*
X353Y565*
X352Y570*
Y571*
X353Y572*
X354Y575*
X357Y578*
X358Y580*
X364*
X366Y579*
G37*
G36*
X193Y545D02*
X200Y542D01*
X202Y540*
X204Y536*
Y525*
Y524*
X203Y522*
X200Y520*
X198Y519*
X194Y518*
X193*
X191Y519*
X185Y522*
X179Y526*
X176Y528*
X175Y531*
Y541*
Y542*
X176Y544*
X178Y545*
X180Y546*
X188*
X193Y545*
G37*
G36*
X369Y548D02*
X374Y546D01*
X379Y542*
X384Y536*
Y525*
Y524*
X382Y522*
X379Y520*
X376Y519*
X373Y518*
X372*
X370Y520*
X364Y524*
X357Y531*
X355Y535*
X354Y541*
X356Y542*
X359Y545*
X364Y548*
X367Y549*
X369Y548*
G37*
G36*
X214Y565D02*
X219Y562D01*
X221Y559*
X225Y554*
Y546*
Y545*
X223Y544*
X221Y542*
X220Y541*
X216Y540*
X211Y539*
X210*
X210Y540*
X206Y542*
X200Y545*
X196Y552*
Y562*
Y563*
X197Y565*
X199Y566*
X201Y567*
X212*
X214Y565*
G37*
G36*
X415Y566D02*
X424Y565D01*
X433Y562*
X441Y557*
X447Y552*
X447Y548*
X448Y544*
Y541*
X447Y540*
X444Y538*
X439Y534*
X434Y530*
X428Y524*
X422Y517*
X416Y510*
X412Y503*
X406*
X401Y504*
X398Y506*
X395Y509*
X391Y513*
X388Y518*
Y557*
Y558*
X389Y560*
X393Y563*
X395Y565*
X399Y567*
X406*
X415Y566*
G37*
G36*
X426Y596D02*
X428Y594D01*
X432Y591*
X436Y586*
X437Y580*
X436Y578*
X435Y575*
X433Y572*
X431Y571*
X430Y570*
X418*
X417Y571*
X413Y575*
X408Y581*
X407Y585*
X406Y588*
Y589*
X407Y590*
X409Y594*
X411Y596*
X413Y598*
X419*
X426Y596*
G37*
G36*
X560Y437D02*
X566Y433D01*
X569Y431*
X570Y427*
Y419*
Y418*
X570Y417*
X567Y414*
X562Y411*
X557*
X553Y412*
X549Y414*
X546Y417*
X542Y421*
X540Y425*
X539Y432*
X547Y438*
X554*
X560Y437*
G37*
G36*
X231Y712D02*
X240Y710D01*
X250Y708*
X258Y704*
X262Y702*
X264Y699*
X265Y696*
X266Y692*
Y690*
X264Y688*
X262Y687*
X260Y683*
X255Y680*
X249Y676*
X241Y671*
Y670*
Y669*
X239Y665*
X237Y661*
X234Y657*
X231Y654*
X225Y650*
X219*
X218Y651*
X213Y655*
X209Y660*
X204Y668*
Y669*
Y671*
X205Y677*
X206Y683*
X207Y689*
X204Y699*
Y700*
X205Y701*
X206Y707*
X210Y711*
X211Y712*
X214Y713*
X222*
X231Y712*
G37*
G36*
X18Y682D02*
X22Y679D01*
X25Y677*
X26Y672*
X27Y666*
Y663*
Y662*
X26Y661*
X24Y658*
X19Y656*
X16*
X13Y657*
X9Y658*
X5Y661*
X2Y665*
X0Y669*
X0Y677*
Y679*
Y680*
X0Y682*
X2Y683*
X5Y684*
X12*
X18Y682*
G37*
G36*
X592Y443D02*
X596Y441D01*
X599Y438*
X601Y433*
X601Y427*
Y424*
Y423*
X601Y422*
X598Y420*
X593Y417*
X590*
X585Y419*
X579Y422*
X575Y425*
X572Y430*
Y438*
Y439*
X573Y441*
X576Y442*
X580Y445*
X586*
X592Y443*
G37*
G36*
X259Y534D02*
X265Y531D01*
X269Y528*
X272Y524*
Y515*
X271Y514*
X267Y512*
X263Y508*
X258Y503*
X253Y497*
X249Y492*
X246Y486*
X245Y482*
X235Y474*
X227*
X225Y475*
X222Y477*
X220Y482*
X217Y488*
X215Y493*
X214Y498*
X213Y504*
X212Y513*
X211Y521*
Y531*
X220Y536*
X253*
X259Y534*
G37*
G36*
X79Y703D02*
X84Y699D01*
X86Y697*
X89Y692*
Y681*
X88Y680*
X86Y678*
X81Y675*
X77Y671*
X72Y666*
X67Y661*
X65Y656*
X64Y650*
X54Y643*
X53*
X50Y644*
X46Y646*
X42Y649*
X37Y656*
X36Y660*
X34Y665*
X32Y671*
X31Y678*
X30Y686*
Y695*
Y696*
X31Y697*
X33Y700*
X35Y703*
X36Y705*
X77*
X79Y703*
G37*
%LNfluke_8505a_board-2*%
%LPC*%
G36*
X-1044Y263D02*
X-1055Y245D01*
X-1044*
Y263*
G37*
G36*
X-3652Y708D02*
X-3652D01*
X-3653Y708*
X-3653Y707*
X-3654Y707*
X-3656Y707*
X-3657Y706*
X-3659Y706*
X-3661Y706*
X-3661*
X-3662Y705*
X-3662Y705*
X-3663Y705*
X-3664Y705*
X-3666Y704*
X-3667Y704*
X-3668Y703*
X-3669Y703*
X-3669Y703*
X-3669Y703*
X-3670Y702*
X-3670Y702*
X-3671Y701*
X-3671Y700*
X-3672Y699*
X-3672Y698*
Y698*
Y697*
X-3672Y697*
X-3671Y696*
X-3671Y695*
X-3671Y694*
X-3670Y694*
X-3670Y693*
X-3669Y693*
X-3669Y692*
X-3669Y692*
X-3668Y692*
X-3667Y691*
X-3666Y691*
X-3665Y691*
X-3664Y691*
X-3663*
X-3662Y691*
X-3661Y691*
X-3660Y691*
X-3659Y692*
X-3657Y692*
X-3656Y693*
X-3656Y693*
X-3656Y693*
X-3655Y694*
X-3655Y694*
X-3654Y695*
X-3654Y696*
X-3653Y697*
X-3653Y698*
Y698*
X-3653Y698*
X-3653Y699*
X-3652Y699*
X-3652Y700*
X-3652Y702*
X-3652Y703*
Y705*
Y708*
G37*
G36*
X137Y261D02*
X126Y243D01*
X137*
Y261*
G37*
G36*
X-3865Y263D02*
X-3865D01*
X-3866Y263*
X-3866Y263*
X-3867Y263*
X-3868Y262*
X-3869Y262*
X-3870Y261*
X-3870Y261*
X-3870Y261*
X-3870Y260*
X-3870Y259*
X-3871Y259*
X-3871Y257*
X-3871Y256*
X-3871Y255*
Y255*
Y254*
Y254*
Y254*
X-3871Y253*
X-3871Y252*
X-3871Y251*
X-3871Y250*
X-3870Y248*
X-3869Y247*
X-3869Y247*
X-3869Y247*
X-3868Y247*
X-3868Y246*
X-3867Y246*
X-3866Y245*
X-3865Y245*
X-3864Y245*
X-3864*
X-3863Y245*
X-3863Y245*
X-3862Y245*
X-3861Y246*
X-3861Y246*
X-3860Y247*
X-3860Y247*
X-3860Y247*
X-3859Y248*
X-3859Y248*
X-3859Y249*
X-3858Y251*
X-3858Y252*
X-3858Y254*
Y254*
Y254*
Y254*
Y255*
X-3858Y255*
X-3858Y257*
X-3859Y258*
X-3859Y259*
X-3859Y260*
X-3860Y261*
X-3860Y261*
X-3860Y261*
X-3861Y262*
X-3861Y262*
X-3862Y263*
X-3863Y263*
X-3864Y263*
X-3865Y263*
G37*
G36*
X-3559Y727D02*
X-3559D01*
X-3560Y726*
X-3561Y726*
X-3562Y726*
X-3563Y726*
X-3565Y725*
X-3566Y724*
X-3567Y722*
X-3568Y722*
X-3568Y722*
X-3569Y721*
X-3569Y719*
X-3570Y718*
X-3570Y715*
X-3571Y713*
X-3571Y710*
Y710*
Y710*
Y709*
Y709*
X-3571Y708*
Y707*
X-3570Y705*
X-3570Y703*
X-3570Y701*
X-3569Y699*
X-3569Y698*
X-3568Y697*
Y697*
X-3568Y697*
X-3568Y697*
X-3567Y696*
X-3566Y695*
X-3564Y694*
X-3563Y693*
X-3561Y692*
X-3560Y692*
X-3559Y692*
X-3558*
X-3558Y692*
X-3557Y692*
X-3556Y692*
X-3554Y693*
X-3553Y694*
X-3552Y695*
X-3550Y696*
X-3550Y696*
X-3550Y697*
X-3549Y698*
X-3548Y699*
X-3548Y701*
X-3547Y703*
X-3547Y706*
X-3547Y709*
Y709*
Y709*
Y710*
Y710*
X-3547Y711*
X-3547Y712*
X-3547Y714*
X-3548Y716*
X-3548Y718*
X-3549Y721*
X-3549Y721*
X-3550Y722*
X-3550Y723*
X-3551Y723*
X-3551Y724*
X-3552Y724*
X-3554Y725*
X-3555Y726*
X-3557Y726*
X-3559Y727*
G37*
G36*
X-3966Y834D02*
X-3967D01*
X-3968Y834*
X-3969Y833*
X-3970Y833*
X-3972Y832*
X-3973Y832*
X-3974Y830*
X-3974Y830*
X-3974Y830*
X-3975Y829*
X-3976Y828*
X-3976Y826*
X-3977Y825*
X-3977Y823*
X-3977Y821*
X-3955*
Y821*
Y821*
Y821*
X-3956Y822*
X-3956Y823*
X-3956Y824*
X-3956Y826*
X-3957Y828*
X-3958Y829*
X-3959Y830*
X-3959Y831*
X-3959Y831*
X-3960Y832*
X-3961Y832*
X-3962Y833*
X-3963Y833*
X-3965Y834*
X-3966Y834*
G37*
G36*
X-3878Y853D02*
X-3879D01*
X-3880Y853*
X-3881Y853*
X-3882Y853*
X-3883Y852*
X-3884Y852*
X-3885Y851*
X-3885Y851*
X-3885Y851*
X-3886Y850*
X-3886Y849*
X-3887Y848*
X-3887Y847*
X-3887Y846*
X-3887Y844*
Y844*
Y844*
X-3887Y843*
X-3887Y842*
X-3887Y841*
X-3886Y840*
X-3886Y838*
X-3885Y838*
X-3885Y837*
X-3885Y837*
X-3884Y837*
X-3883Y836*
X-3882Y836*
X-3881Y835*
X-3880Y835*
X-3879Y835*
X-3878*
X-3877Y835*
X-3876Y835*
X-3875Y836*
X-3874Y836*
X-3873Y837*
X-3872Y838*
X-3872Y838*
X-3871Y838*
X-3871Y838*
X-3871Y839*
X-3870Y840*
X-3870Y841*
X-3869Y843*
X-3869Y844*
Y845*
Y845*
X-3869Y846*
X-3870Y847*
X-3870Y848*
X-3870Y849*
X-3871Y850*
X-3872Y851*
X-3872Y851*
X-3872Y851*
X-3873Y852*
X-3874Y852*
X-3875Y853*
X-3876Y853*
X-3877Y853*
X-3878Y853*
G37*
G36*
X-3635Y847D02*
X-3645Y819D01*
X-3624*
X-3635Y847*
G37*
G36*
X-3878Y824D02*
X-3879D01*
X-3880Y823*
X-3881Y823*
X-3883Y823*
X-3884Y822*
X-3885Y821*
X-3886Y820*
X-3886Y820*
X-3887Y819*
X-3887Y818*
X-3887Y818*
X-3888Y816*
X-3888Y815*
X-3889Y813*
X-3889Y812*
Y812*
Y812*
Y811*
Y811*
X-3889Y810*
X-3888Y808*
X-3888Y807*
X-3887Y805*
X-3887Y804*
X-3886Y802*
X-3886Y802*
X-3885Y802*
X-3885Y801*
X-3884Y801*
X-3883Y800*
X-3881Y800*
X-3880Y799*
X-3878Y799*
X-3877*
X-3877Y799*
X-3875Y800*
X-3874Y800*
X-3873Y800*
X-3872Y801*
X-3871Y802*
X-3871Y802*
X-3870Y803*
X-3870Y804*
X-3869Y805*
X-3869Y806*
X-3868Y808*
X-3868Y810*
X-3868Y812*
Y812*
Y812*
Y813*
X-3868Y814*
X-3868Y815*
X-3868Y816*
X-3869Y818*
X-3870Y819*
X-3871Y820*
X-3871Y820*
X-3871Y821*
X-3872Y821*
X-3873Y822*
X-3874Y823*
X-3875Y823*
X-3877Y824*
X-3878Y824*
G37*
G36*
X-3761Y853D02*
X-3761D01*
X-3762Y853*
X-3762Y853*
X-3763Y852*
X-3764Y852*
X-3765Y852*
X-3766Y851*
X-3766Y851*
X-3766Y851*
X-3766Y850*
X-3767Y850*
X-3767Y849*
X-3768Y848*
X-3768Y847*
X-3769Y845*
Y845*
X-3769Y845*
Y845*
X-3769Y844*
X-3769Y843*
X-3769Y843*
X-3769Y842*
X-3769Y841*
X-3769Y839*
X-3770Y838*
X-3770Y836*
X-3770Y835*
X-3770Y833*
Y831*
X-3770Y829*
Y826*
Y826*
Y826*
Y825*
Y824*
Y823*
X-3770Y822*
Y820*
X-3770Y819*
X-3770Y816*
X-3769Y813*
X-3769Y811*
X-3769Y810*
X-3769Y809*
X-3769Y808*
X-3769Y807*
X-3768Y807*
X-3768Y806*
X-3768Y805*
X-3767Y804*
X-3767Y803*
X-3766Y802*
X-3765Y801*
X-3765Y801*
X-3765Y801*
X-3765Y801*
X-3764Y800*
X-3763Y800*
X-3763Y800*
X-3762Y800*
X-3761Y799*
X-3760*
X-3760Y800*
X-3759Y800*
X-3759Y800*
X-3758Y800*
X-3757Y801*
X-3756Y801*
X-3756Y801*
X-3756Y801*
X-3755Y802*
X-3755Y803*
X-3755Y803*
X-3754Y804*
X-3753Y806*
X-3753Y807*
Y807*
X-3753Y807*
Y808*
X-3753Y808*
X-3753Y809*
X-3753Y810*
X-3752Y811*
X-3752Y812*
X-3752Y813*
X-3752Y814*
X-3752Y816*
X-3752Y818*
X-3752Y819*
Y821*
X-3752Y824*
Y826*
Y826*
Y827*
Y827*
Y828*
Y829*
X-3752Y831*
Y832*
X-3752Y833*
X-3752Y837*
X-3752Y839*
X-3752Y841*
X-3752Y842*
X-3753Y844*
X-3753Y845*
Y845*
X-3753Y845*
X-3753Y845*
X-3753Y846*
X-3754Y847*
X-3754Y848*
X-3755Y849*
X-3756Y850*
X-3756Y851*
X-3756Y851*
X-3757Y852*
X-3757Y852*
X-3758Y852*
X-3758Y852*
X-3759Y853*
X-3760Y853*
X-3761Y853*
G37*
G36*
X-3793Y745D02*
X-3808D01*
Y727*
X-3793*
X-3791Y727*
X-3788*
X-3787Y727*
X-3787*
X-3786Y727*
X-3785Y728*
X-3784Y728*
X-3784Y728*
X-3783Y729*
X-3782Y729*
X-3781Y730*
X-3781Y730*
X-3780Y730*
X-3780Y731*
X-3779Y732*
X-3779Y733*
X-3779Y734*
X-3778Y735*
X-3778Y736*
Y736*
Y737*
X-3778Y737*
X-3779Y738*
X-3779Y739*
X-3779Y740*
X-3780Y741*
X-3780Y742*
X-3780Y742*
X-3781Y742*
X-3781Y742*
X-3782Y743*
X-3783Y743*
X-3784Y744*
X-3785Y744*
X-3786Y744*
X-3786*
X-3787Y744*
X-3788*
X-3789Y745*
X-3791*
X-3793Y745*
G37*
G36*
X-3722Y726D02*
X-3723D01*
X-3723Y726*
X-3724Y726*
X-3725Y725*
X-3727Y725*
X-3728Y724*
X-3730Y723*
X-3732Y721*
X-3732Y721*
X-3732Y721*
X-3733Y720*
X-3733Y718*
X-3734Y717*
X-3735Y714*
X-3735Y712*
X-3735Y709*
Y709*
Y709*
Y708*
X-3735Y708*
Y707*
X-3735Y706*
X-3735Y704*
X-3734Y702*
X-3734Y700*
X-3733Y698*
X-3732Y696*
X-3731Y696*
X-3731Y696*
X-3730Y695*
X-3729Y694*
X-3728Y694*
X-3726Y693*
X-3724Y692*
X-3722Y692*
X-3721*
X-3721Y692*
X-3720Y692*
X-3719Y693*
X-3717Y693*
X-3716Y694*
X-3714Y695*
X-3712Y696*
X-3712Y697*
X-3712Y697*
X-3711Y698*
X-3710Y700*
X-3710Y701*
X-3709Y704*
X-3709Y706*
X-3709Y709*
Y709*
Y709*
Y710*
X-3709Y710*
Y711*
X-3709Y712*
X-3709Y714*
X-3710Y716*
X-3710Y718*
X-3711Y720*
X-3712Y721*
X-3713Y722*
X-3713Y722*
X-3714Y723*
X-3715Y724*
X-3717Y724*
X-3718Y725*
X-3720Y726*
X-3722Y726*
G37*
G36*
X-3957D02*
X-3957D01*
X-3958Y726*
X-3959Y726*
X-3960Y725*
X-3962Y725*
X-3963Y724*
X-3965Y723*
X-3966Y721*
X-3967Y721*
X-3967Y721*
X-3968Y720*
X-3968Y718*
X-3969Y717*
X-3970Y714*
X-3970Y712*
X-3970Y709*
Y709*
Y709*
Y708*
X-3970Y708*
Y707*
X-3970Y706*
X-3970Y704*
X-3969Y702*
X-3969Y700*
X-3968Y698*
X-3966Y696*
X-3966Y696*
X-3966Y696*
X-3965Y695*
X-3964Y694*
X-3962Y694*
X-3961Y693*
X-3959Y692*
X-3957Y692*
X-3956*
X-3956Y692*
X-3955Y692*
X-3954Y693*
X-3952Y693*
X-3950Y694*
X-3949Y695*
X-3947Y696*
X-3947Y697*
X-3947Y697*
X-3946Y698*
X-3945Y700*
X-3945Y701*
X-3944Y704*
X-3944Y706*
X-3943Y709*
Y709*
Y709*
Y710*
X-3944Y710*
Y711*
X-3944Y712*
X-3944Y714*
X-3944Y716*
X-3945Y718*
X-3946Y720*
X-3947Y721*
X-3948Y722*
X-3948Y722*
X-3949Y723*
X-3950Y724*
X-3951Y724*
X-3953Y725*
X-3955Y726*
X-3957Y726*
G37*
G36*
X-3792Y715D02*
X-3808D01*
Y694*
X-3791*
X-3789Y694*
X-3788*
X-3786Y695*
X-3784Y695*
X-3784*
X-3783Y695*
X-3783*
X-3783Y695*
X-3782Y695*
X-3781Y695*
X-3780Y696*
X-3779Y696*
X-3779Y697*
X-3778Y698*
X-3778Y698*
X-3777Y698*
X-3777Y699*
X-3777Y700*
X-3776Y700*
X-3776Y701*
X-3776Y703*
X-3776Y704*
Y704*
Y705*
X-3776Y705*
X-3776Y706*
X-3776Y707*
X-3776Y708*
X-3777Y709*
X-3777Y710*
X-3777Y710*
X-3778Y710*
X-3778Y711*
X-3778Y711*
X-3779Y712*
X-3780Y713*
X-3781Y713*
X-3782Y714*
X-3782*
X-3783Y714*
X-3784Y714*
X-3784Y714*
X-3785Y714*
X-3786Y714*
X-3787Y714*
X-3788Y714*
X-3789*
X-3790Y714*
X-3792Y715*
G37*
G36*
X-1007Y270D02*
X-1008D01*
X-1008Y270*
X-1008Y269*
X-1009Y269*
X-1009Y269*
X-1010Y269*
X-1010Y268*
X-1010Y268*
X-1011Y268*
X-1011Y268*
X-1011Y268*
X-1011Y267*
X-1012Y266*
X-1012Y265*
X-1012Y264*
Y264*
X-1012Y264*
Y264*
X-1013Y264*
X-1013Y263*
X-1013Y263*
X-1013Y262*
X-1013Y261*
X-1013Y261*
X-1013Y260*
X-1013Y259*
X-1013Y257*
X-1013Y256*
Y255*
X-1013Y253*
Y252*
Y252*
Y251*
Y251*
Y250*
Y250*
X-1013Y249*
Y248*
X-1013Y247*
X-1013Y245*
X-1013Y243*
X-1013Y242*
X-1013Y241*
X-1013Y240*
X-1012Y239*
X-1012Y239*
X-1012Y239*
X-1012Y238*
X-1012Y238*
X-1012Y237*
X-1011Y236*
X-1011Y236*
X-1010Y235*
X-1010Y235*
X-1010Y235*
X-1010Y235*
X-1009Y235*
X-1009Y234*
X-1008Y234*
X-1008Y234*
X-1007Y234*
X-1007*
X-1007Y234*
X-1006Y234*
X-1006Y234*
X-1005Y234*
X-1005Y235*
X-1004Y235*
X-1004Y235*
X-1004Y235*
X-1004Y236*
X-1003Y236*
X-1003Y236*
X-1003Y237*
X-1002Y238*
X-1002Y239*
Y239*
X-1002Y239*
Y239*
X-1002Y240*
X-1002Y240*
X-1002Y241*
X-1002Y241*
X-1002Y242*
X-1001Y243*
X-1001Y244*
X-1001Y245*
X-1001Y246*
X-1001Y247*
Y249*
X-1001Y250*
Y252*
Y252*
Y252*
Y253*
Y253*
Y254*
X-1001Y255*
Y256*
X-1001Y257*
X-1001Y259*
X-1001Y261*
X-1002Y262*
X-1002Y263*
X-1002Y263*
X-1002Y264*
Y264*
X-1002Y264*
X-1002Y264*
X-1002Y265*
X-1003Y266*
X-1003Y267*
X-1003Y267*
X-1004Y268*
X-1004Y268*
X-1004Y268*
X-1004Y269*
X-1005Y269*
X-1005Y269*
X-1005Y269*
X-1006Y269*
X-1007Y270*
X-1007Y270*
G37*
G36*
X-4172Y727D02*
X-4173D01*
X-4173Y726*
X-4174Y726*
X-4176Y726*
X-4177Y725*
X-4178Y724*
X-4180Y723*
X-4180Y723*
X-4180Y722*
X-4180Y722*
X-4181Y721*
X-4182Y719*
X-4182Y718*
X-4182Y716*
X-4183Y714*
X-4161*
Y714*
Y714*
Y714*
X-4161Y715*
X-4161Y716*
X-4161Y717*
X-4162Y719*
X-4162Y720*
X-4163Y722*
X-4164Y723*
X-4164Y723*
X-4165Y724*
X-4165Y724*
X-4166Y725*
X-4167Y725*
X-4169Y726*
X-4170Y726*
X-4172Y727*
G37*
%LNfluke_8505a_board-3*%
%LPD*%
G54D16*
X-814Y601D02*
Y801D01*
X-3314Y601D02*
Y801D01*
X-814*
X-3314Y601D02*
X-814D01*
G54D17*
X-2195Y927D02*
X-2215D01*
X-2205*
Y877*
X-2215Y867*
X-2225*
X-2235Y877*
X-2175Y867D02*
X-2155D01*
X-2165*
Y927*
X-2175Y917*
M02*