%FSLAX23Y23*%
%MOIN*%
%SFA1B1*%

%IPPOS*%
%ADD10R,0.074800X0.354330*%
%ADD11R,0.236220X0.354330*%
%ADD12C,0.015750*%
%ADD13R,0.059060X0.059060*%
%ADD14C,0.059060*%
%ADD15C,0.013780*%
%LNfluke_8505a_board-1*%
%LPD*%
G54D10*
X-3731Y0D03*
X-3881D03*
X-3581D03*
X-3431D03*
X-3281D03*
X-3131D03*
X-2981D03*
X-2831D03*
X-2681D03*
X-2531D03*
X-2381D03*
X-2231D03*
X-2081D03*
X-1931D03*
X-1781D03*
X-1631D03*
X-1481D03*
X-1331D03*
X-1181D03*
X-1031D03*
X-625D03*
X-475D03*
X75D03*
X225D03*
G54D11*
X-245Y0D03*
G54D12*
X-2215Y700D02*
X-2164Y751D01*
X-2215Y533D02*
Y700D01*
X-2230Y518D02*
X-2215Y533D01*
X-2230Y148D02*
Y518D01*
X-2316Y699D02*
X-2264Y751D01*
X-2316Y610D02*
Y699D01*
X-2376Y550D02*
X-2316Y610D01*
X-2376Y166D02*
Y550D01*
X-2064Y751D02*
X-2013Y700D01*
Y580D02*
Y700D01*
X-2091Y502D02*
X-2013Y580D01*
X-2091Y162D02*
Y502D01*
X-1964Y751D02*
X-1915Y702D01*
Y590D02*
Y702D01*
X-1930Y575D02*
X-1915Y590D01*
X-1930Y169D02*
Y575D01*
X-1864Y751D02*
X-1814Y701D01*
Y592D02*
Y701D01*
Y592D02*
X-1790Y567D01*
Y164D02*
Y567D01*
X-1764Y751D02*
X-1714Y701D01*
Y616D02*
Y701D01*
Y616D02*
X-1626Y528D01*
Y173D02*
Y528D01*
X-2416Y700D02*
X-2364Y751D01*
X-2416Y628D02*
Y700D01*
X-2530Y514D02*
X-2416Y628D01*
X-2530Y167D02*
Y514D01*
X-2515Y700D02*
X-2464Y751D01*
X-2515Y622D02*
Y700D01*
X-2680Y457D02*
X-2515Y622D01*
X-2680Y157D02*
Y457D01*
X-2615Y701D02*
X-2564Y751D01*
X-2615Y605D02*
Y701D01*
X-2832Y387D02*
X-2615Y605D01*
X-2832Y165D02*
Y387D01*
X-1664Y751D02*
X-1614Y700D01*
Y607D02*
Y700D01*
Y607D02*
X-1476Y469D01*
Y172D02*
Y469D01*
X-1564Y751D02*
X-1515Y702D01*
Y587D02*
Y702D01*
Y587D02*
X-1331Y403D01*
Y172D02*
Y403D01*
X-1464Y751D02*
X-1414Y701D01*
Y625D02*
Y701D01*
Y625D02*
X-1381Y593D01*
X-1336*
X-1178Y435*
Y173D02*
Y435D01*
X-1364Y751D02*
X-1313Y700D01*
Y616D02*
Y700D01*
Y616D02*
X-1246Y548D01*
X-1139*
X-1029Y437*
Y169D02*
Y437D01*
X-2716Y699D02*
X-2664Y751D01*
X-2716Y610D02*
Y699D01*
X-2785Y541D02*
X-2716Y610D01*
X-2947Y541D02*
X-2785D01*
X-2983Y505D02*
X-2947Y541D01*
X-2983Y172D02*
Y505D01*
X-2816Y699D02*
X-2764Y751D01*
X-2816Y605D02*
Y699D01*
X-2854Y567D02*
X-2816Y605D01*
X-2979Y567D02*
X-2854D01*
X-3127Y419D02*
X-2979Y567D01*
X-3127Y169D02*
Y419D01*
X-2917Y699D02*
X-2864Y751D01*
X-2917Y617D02*
Y699D01*
X-2938Y595D02*
X-2917Y617D01*
X-2998Y595D02*
X-2938D01*
X-3125Y468D02*
X-2998Y595D01*
X-3206Y468D02*
X-3125D01*
X-3282Y392D02*
X-3206Y468D01*
X-3282Y168D02*
Y392D01*
X-3016Y699D02*
X-2964Y751D01*
X-3016Y627D02*
Y699D01*
X-3150Y494D02*
X-3016Y627D01*
X-3346Y494D02*
X-3150D01*
X-3429Y411D02*
X-3346Y494D01*
X-3429Y169D02*
Y411D01*
X-1264Y751D02*
X-1213Y700D01*
Y609D02*
Y700D01*
Y609D02*
X-1183Y578D01*
X-1125*
X-1051Y504*
X-766*
X-697Y436*
X-1164Y751D02*
X-1115Y701D01*
Y611D02*
Y701D01*
Y611D02*
X-1036Y532D01*
X-687*
X-545Y390*
X-1064Y751D02*
X-1015Y702D01*
Y613D02*
Y702D01*
Y613D02*
X-972Y569D01*
X-665*
X-312Y216*
X-964Y751D02*
X-915Y702D01*
X-353*
X1Y347*
X-864Y751D02*
X-311D01*
X155Y284*
X-3064Y738D02*
Y751D01*
X-3117Y686D02*
X-3064Y738D01*
X-3117Y597D02*
Y686D01*
X-3191Y522D02*
X-3117Y597D01*
X-3377Y522D02*
X-3191D01*
X-3577Y322D02*
X-3377Y522D01*
X-3577Y171D02*
Y322D01*
X-3214Y701D02*
X-3164Y751D01*
X-3214Y603D02*
Y701D01*
X-3268Y549D02*
X-3214Y603D01*
X-3389Y549D02*
X-3268D01*
X-3731Y207D02*
X-3389Y549D01*
X-3731Y165D02*
Y207D01*
X-3395Y751D02*
X-3264D01*
X-697Y436D02*
X-625Y364D01*
Y152D02*
Y364D01*
X-545Y389D02*
Y390D01*
Y389D02*
X-477Y321D01*
Y143D02*
Y321D01*
X-312Y215D02*
Y216D01*
Y215D02*
X-275Y179D01*
Y147D02*
Y179D01*
X1Y347D02*
X2D01*
X72Y277*
Y152D02*
Y277D01*
X155Y284D02*
X177D01*
X225Y236*
Y144D02*
Y236D01*
G54D13*
X-3264Y651D03*
G54D14*
X-3264Y751D03*
X-3164Y651D03*
Y751D03*
X-3064Y651D03*
Y751D03*
X-2964Y651D03*
Y751D03*
X-2864Y651D03*
Y751D03*
X-2764Y651D03*
Y751D03*
X-2664Y651D03*
Y751D03*
X-2564Y651D03*
Y751D03*
X-2464Y651D03*
Y751D03*
X-2364Y651D03*
Y751D03*
X-2264Y651D03*
Y751D03*
X-2164Y651D03*
Y751D03*
X-2064Y651D03*
Y751D03*
X-1964Y651D03*
Y751D03*
X-1864Y651D03*
Y751D03*
X-1764Y651D03*
Y751D03*
X-1664Y651D03*
Y751D03*
X-1564Y651D03*
Y751D03*
X-1464Y651D03*
Y751D03*
X-1364Y651D03*
Y751D03*
X-1264Y651D03*
Y751D03*
X-1164Y651D03*
Y751D03*
X-1064Y651D03*
Y751D03*
X-964Y651D03*
Y751D03*
X-864Y651D03*
Y751D03*
G54D15*
X-3550Y751D02*
X-3330D01*
X-3881Y420D02*
X-3550Y751D01*
X-3881Y0D02*
Y420D01*
M02*